<svg xmlns="http://www.w3.org/2000/svg" viewBox="-213.889 -372.423 478.743 895.421" width="478.743" height="895.421">
  <g stroke="#01A1FF" stroke-width="5" stroke-linejoin="round" stroke-linecap="round">
    <path d="M205.218 226.065L195.209 237.406L195.209 219.406L205.218 208.065Z" fill="#FFFFFF" opacity="0.2"/>
    <path d="M185.575 220.287L205.218 226.065L205.218 208.065L185.575 202.287Z" fill="#01A1FF" opacity="0.2"/>
    <path d="M175.567 213.627L185.575 202.287L205.218 208.065L195.209 219.406Z" fill="#FFFFFF" opacity="0.2"/>
    <path d="M37.136 336.219L56.779 330.44L56.779 312.44L37.136 318.219Z" fill="#FFFFFF" opacity="0.2"/>
    <path d="M47.144 347.56L37.136 336.219L37.136 318.219L47.144 329.56Z" fill="#01A1FF" opacity="0.2"/>
    <path d="M66.787 323.781L47.144 329.56L37.136 318.219L56.779 312.44Z" fill="#FFFFFF" opacity="0.2"/>
    <path d="M205.218 -253.473L195.209 -242.133L195.209 -260.133L205.218 -271.473Z" fill="#FFFFFF" opacity="0.2"/>
    <path d="M185.575 -259.252L205.218 -253.473L205.218 -271.473L185.575 -277.252Z" fill="#01A1FF" opacity="0.2"/>
    <path d="M175.567 -265.911L185.575 -277.252L205.218 -271.473L195.209 -260.133Z" fill="#FFFFFF" opacity="0.2"/>
    <path d="M-124.602 287.216L-134.61 298.556L-134.61 280.556L-124.602 269.216Z" fill="#FFFFFF" opacity="0.2"/>
    <path d="M-144.244 281.437L-124.602 287.216L-124.602 269.216L-144.244 263.437Z" fill="#01A1FF" opacity="0.2"/>
    <path d="M-154.253 274.778L-144.244 263.437L-124.602 269.216L-134.61 280.556Z" fill="#FFFFFF" opacity="0.2"/>
    <path d="M37.136 -203.781L56.779 -209.56L56.779 -227.56L37.136 -221.781Z" fill="#FFFFFF" opacity="0.2"/>
    <path d="M47.144 -192.44L37.136 -203.781L37.136 -221.781L47.144 -210.44Z" fill="#01A1FF" opacity="0.2"/>
    <path d="M66.787 -216.219L47.144 -210.44L37.136 -221.781L56.779 -227.56Z" fill="#FFFFFF" opacity="0.2"/>
    <path d="M-154.253 66.219L-134.61 60.44L-134.61 42.44L-154.253 48.219Z" fill="#FFFFFF" opacity="0.2"/>
    <path d="M-144.244 77.56L-154.253 66.219L-154.253 48.219L-144.244 59.56Z" fill="#01A1FF" opacity="0.2"/>
    <path d="M-124.602 53.781L-144.244 59.56L-154.253 48.219L-134.61 42.44Z" fill="#FFFFFF" opacity="0.2"/>
  </g>
</svg>
