# Constructive brand kit — generated by @constructive-io/brand-3d
mtllib constructive-wordmark.mtl
o constructive-wordmark
v 33.5000 1.5000 -0.5000
v 34.5000 1.5000 -0.5000
v 34.5000 2.5000 -0.5000
v 33.5000 2.5000 -0.5000
v 34.5000 1.5000 0.5000
v 33.5000 1.5000 0.5000
v 33.5000 2.5000 0.5000
v 34.5000 2.5000 0.5000
v 32.5000 1.5000 -0.5000
v 32.5000 2.5000 -0.5000
v 32.5000 1.5000 0.5000
v 32.5000 2.5000 0.5000
v 31.5000 1.5000 -0.5000
v 31.5000 2.5000 -0.5000
v 31.5000 1.5000 0.5000
v 31.5000 2.5000 0.5000
v 30.5000 1.5000 -0.5000
v 30.5000 2.5000 -0.5000
v 30.5000 1.5000 0.5000
v 30.5000 2.5000 0.5000
v 27.5000 1.5000 -0.5000
v 28.5000 1.5000 -0.5000
v 28.5000 2.5000 -0.5000
v 27.5000 2.5000 -0.5000
v 28.5000 1.5000 0.5000
v 27.5000 1.5000 0.5000
v 27.5000 2.5000 0.5000
v 28.5000 2.5000 0.5000
v 26.5000 1.5000 -0.5000
v 26.5000 2.5000 -0.5000
v 26.5000 1.5000 0.5000
v 26.5000 2.5000 0.5000
v 25.5000 1.5000 -0.5000
v 25.5000 2.5000 -0.5000
v 25.5000 1.5000 0.5000
v 25.5000 2.5000 0.5000
v 22.5000 1.5000 -0.5000
v 23.5000 1.5000 -0.5000
v 23.5000 2.5000 -0.5000
v 22.5000 2.5000 -0.5000
v 23.5000 1.5000 0.5000
v 22.5000 1.5000 0.5000
v 22.5000 2.5000 0.5000
v 23.5000 2.5000 0.5000
v 18.5000 1.5000 -0.5000
v 19.5000 1.5000 -0.5000
v 19.5000 2.5000 -0.5000
v 18.5000 2.5000 -0.5000
v 19.5000 1.5000 0.5000
v 18.5000 1.5000 0.5000
v 18.5000 2.5000 0.5000
v 19.5000 2.5000 0.5000
v 15.5000 1.5000 -0.5000
v 16.5000 1.5000 -0.5000
v 16.5000 2.5000 -0.5000
v 15.5000 2.5000 -0.5000
v 16.5000 1.5000 0.5000
v 15.5000 1.5000 0.5000
v 15.5000 2.5000 0.5000
v 16.5000 2.5000 0.5000
v 14.5000 1.5000 -0.5000
v 14.5000 2.5000 -0.5000
v 14.5000 1.5000 0.5000
v 14.5000 2.5000 0.5000
v 13.5000 1.5000 -0.5000
v 13.5000 2.5000 -0.5000
v 13.5000 1.5000 0.5000
v 13.5000 2.5000 0.5000
v 12.5000 1.5000 -0.5000
v 12.5000 2.5000 -0.5000
v 12.5000 1.5000 0.5000
v 12.5000 2.5000 0.5000
v 10.5000 1.5000 -0.5000
v 11.5000 1.5000 -0.5000
v 11.5000 2.5000 -0.5000
v 10.5000 2.5000 -0.5000
v 11.5000 1.5000 0.5000
v 10.5000 1.5000 0.5000
v 10.5000 2.5000 0.5000
v 11.5000 2.5000 0.5000
v 9.5000 1.5000 -0.5000
v 9.5000 2.5000 -0.5000
v 9.5000 1.5000 0.5000
v 9.5000 2.5000 0.5000
v 8.5000 1.5000 -0.5000
v 8.5000 2.5000 -0.5000
v 8.5000 1.5000 0.5000
v 8.5000 2.5000 0.5000
v 7.5000 1.5000 -0.5000
v 7.5000 2.5000 -0.5000
v 7.5000 1.5000 0.5000
v 7.5000 2.5000 0.5000
v 6.5000 1.5000 -0.5000
v 6.5000 2.5000 -0.5000
v 6.5000 1.5000 0.5000
v 6.5000 2.5000 0.5000
v 4.5000 1.5000 -0.5000
v 5.5000 1.5000 -0.5000
v 5.5000 2.5000 -0.5000
v 4.5000 2.5000 -0.5000
v 5.5000 1.5000 0.5000
v 4.5000 1.5000 0.5000
v 4.5000 2.5000 0.5000
v 5.5000 2.5000 0.5000
v 3.5000 1.5000 -0.5000
v 3.5000 2.5000 -0.5000
v 3.5000 1.5000 0.5000
v 3.5000 2.5000 0.5000
v 2.5000 1.5000 -0.5000
v 2.5000 2.5000 -0.5000
v 2.5000 1.5000 0.5000
v 2.5000 2.5000 0.5000
v 1.5000 1.5000 -0.5000
v 1.5000 2.5000 -0.5000
v 1.5000 1.5000 0.5000
v 1.5000 2.5000 0.5000
v -1.5000 1.5000 -0.5000
v -0.5000 1.5000 -0.5000
v -0.5000 2.5000 -0.5000
v -1.5000 2.5000 -0.5000
v -0.5000 1.5000 0.5000
v -1.5000 1.5000 0.5000
v -1.5000 2.5000 0.5000
v -0.5000 2.5000 0.5000
v -5.5000 1.5000 -0.5000
v -4.5000 1.5000 -0.5000
v -4.5000 2.5000 -0.5000
v -5.5000 2.5000 -0.5000
v -4.5000 1.5000 0.5000
v -5.5000 1.5000 0.5000
v -5.5000 2.5000 0.5000
v -4.5000 2.5000 0.5000
v -8.5000 1.5000 -0.5000
v -7.5000 1.5000 -0.5000
v -7.5000 2.5000 -0.5000
v -8.5000 2.5000 -0.5000
v -7.5000 1.5000 0.5000
v -8.5000 1.5000 0.5000
v -8.5000 2.5000 0.5000
v -7.5000 2.5000 0.5000
v -9.5000 1.5000 -0.5000
v -9.5000 2.5000 -0.5000
v -9.5000 1.5000 0.5000
v -9.5000 2.5000 0.5000
v -10.5000 1.5000 -0.5000
v -10.5000 2.5000 -0.5000
v -10.5000 1.5000 0.5000
v -10.5000 2.5000 0.5000
v -11.5000 1.5000 -0.5000
v -11.5000 2.5000 -0.5000
v -11.5000 1.5000 0.5000
v -11.5000 2.5000 0.5000
v -13.5000 1.5000 -0.5000
v -12.5000 1.5000 -0.5000
v -12.5000 2.5000 -0.5000
v -13.5000 2.5000 -0.5000
v -12.5000 1.5000 0.5000
v -13.5000 1.5000 0.5000
v -13.5000 2.5000 0.5000
v -12.5000 2.5000 0.5000
v -14.5000 1.5000 -0.5000
v -14.5000 2.5000 -0.5000
v -14.5000 1.5000 0.5000
v -14.5000 2.5000 0.5000
v -15.5000 1.5000 -0.5000
v -15.5000 2.5000 -0.5000
v -15.5000 1.5000 0.5000
v -15.5000 2.5000 0.5000
v -16.5000 1.5000 -0.5000
v -16.5000 2.5000 -0.5000
v -16.5000 1.5000 0.5000
v -16.5000 2.5000 0.5000
v -17.5000 1.5000 -0.5000
v -17.5000 2.5000 -0.5000
v -17.5000 1.5000 0.5000
v -17.5000 2.5000 0.5000
v -19.5000 1.5000 -0.5000
v -18.5000 1.5000 -0.5000
v -18.5000 2.5000 -0.5000
v -19.5000 2.5000 -0.5000
v -18.5000 1.5000 0.5000
v -19.5000 1.5000 0.5000
v -19.5000 2.5000 0.5000
v -18.5000 2.5000 0.5000
v -20.5000 1.5000 -0.5000
v -20.5000 2.5000 -0.5000
v -20.5000 1.5000 0.5000
v -20.5000 2.5000 0.5000
v -21.5000 1.5000 -0.5000
v -21.5000 2.5000 -0.5000
v -21.5000 1.5000 0.5000
v -21.5000 2.5000 0.5000
v -22.5000 1.5000 -0.5000
v -22.5000 2.5000 -0.5000
v -22.5000 1.5000 0.5000
v -22.5000 2.5000 0.5000
v -23.5000 1.5000 -0.5000
v -23.5000 2.5000 -0.5000
v -23.5000 1.5000 0.5000
v -23.5000 2.5000 0.5000
v -25.5000 1.5000 -0.5000
v -24.5000 1.5000 -0.5000
v -24.5000 2.5000 -0.5000
v -25.5000 2.5000 -0.5000
v -24.5000 1.5000 0.5000
v -25.5000 1.5000 0.5000
v -25.5000 2.5000 0.5000
v -24.5000 2.5000 0.5000
v -29.5000 1.5000 -0.5000
v -28.5000 1.5000 -0.5000
v -28.5000 2.5000 -0.5000
v -29.5000 2.5000 -0.5000
v -28.5000 1.5000 0.5000
v -29.5000 1.5000 0.5000
v -29.5000 2.5000 0.5000
v -28.5000 2.5000 0.5000
v -31.5000 1.5000 -0.5000
v -30.5000 1.5000 -0.5000
v -30.5000 2.5000 -0.5000
v -31.5000 2.5000 -0.5000
v -30.5000 1.5000 0.5000
v -31.5000 1.5000 0.5000
v -31.5000 2.5000 0.5000
v -30.5000 2.5000 0.5000
v -32.5000 1.5000 -0.5000
v -32.5000 2.5000 -0.5000
v -32.5000 1.5000 0.5000
v -32.5000 2.5000 0.5000
v -33.5000 1.5000 -0.5000
v -33.5000 2.5000 -0.5000
v -33.5000 1.5000 0.5000
v -33.5000 2.5000 0.5000
v -34.5000 1.5000 -0.5000
v -34.5000 2.5000 -0.5000
v -34.5000 1.5000 0.5000
v -34.5000 2.5000 0.5000
v -35.5000 1.5000 -0.5000
v -35.5000 2.5000 -0.5000
v -35.5000 1.5000 0.5000
v -35.5000 2.5000 0.5000
v 34.5000 0.5000 -0.5000
v 35.5000 0.5000 -0.5000
v 35.5000 1.5000 -0.5000
v 35.5000 0.5000 0.5000
v 34.5000 0.5000 0.5000
v 35.5000 1.5000 0.5000
v 28.5000 0.5000 -0.5000
v 29.5000 0.5000 -0.5000
v 29.5000 1.5000 -0.5000
v 29.5000 0.5000 0.5000
v 28.5000 0.5000 0.5000
v 29.5000 1.5000 0.5000
v 24.5000 0.5000 -0.5000
v 25.5000 0.5000 -0.5000
v 24.5000 1.5000 -0.5000
v 25.5000 0.5000 0.5000
v 24.5000 0.5000 0.5000
v 24.5000 1.5000 0.5000
v 22.5000 0.5000 -0.5000
v 23.5000 0.5000 -0.5000
v 23.5000 0.5000 0.5000
v 22.5000 0.5000 0.5000
v 21.5000 0.5000 -0.5000
v 21.5000 1.5000 -0.5000
v 21.5000 0.5000 0.5000
v 21.5000 1.5000 0.5000
v 18.5000 0.5000 -0.5000
v 19.5000 0.5000 -0.5000
v 19.5000 0.5000 0.5000
v 18.5000 0.5000 0.5000
v 16.5000 0.5000 -0.5000
v 17.5000 0.5000 -0.5000
v 17.5000 1.5000 -0.5000
v 17.5000 0.5000 0.5000
v 16.5000 0.5000 0.5000
v 17.5000 1.5000 0.5000
v 8.5000 0.5000 -0.5000
v 9.5000 0.5000 -0.5000
v 9.5000 0.5000 0.5000
v 8.5000 0.5000 0.5000
v 4.5000 0.5000 -0.5000
v 5.5000 0.5000 -0.5000
v 5.5000 0.5000 0.5000
v 4.5000 0.5000 0.5000
v 0.5000 0.5000 -0.5000
v 1.5000 0.5000 -0.5000
v 0.5000 1.5000 -0.5000
v 1.5000 0.5000 0.5000
v 0.5000 0.5000 0.5000
v 0.5000 1.5000 0.5000
v -1.5000 0.5000 -0.5000
v -0.5000 0.5000 -0.5000
v -0.5000 0.5000 0.5000
v -1.5000 0.5000 0.5000
v -5.5000 0.5000 -0.5000
v -4.5000 0.5000 -0.5000
v -4.5000 0.5000 0.5000
v -5.5000 0.5000 0.5000
v -7.5000 0.5000 -0.5000
v -6.5000 0.5000 -0.5000
v -6.5000 1.5000 -0.5000
v -6.5000 0.5000 0.5000
v -7.5000 0.5000 0.5000
v -6.5000 1.5000 0.5000
v -15.5000 0.5000 -0.5000
v -14.5000 0.5000 -0.5000
v -14.5000 0.5000 0.5000
v -15.5000 0.5000 0.5000
v -21.5000 0.5000 -0.5000
v -20.5000 0.5000 -0.5000
v -20.5000 0.5000 0.5000
v -21.5000 0.5000 0.5000
v -25.5000 0.5000 -0.5000
v -24.5000 0.5000 -0.5000
v -24.5000 0.5000 0.5000
v -25.5000 0.5000 0.5000
v -29.5000 0.5000 -0.5000
v -28.5000 0.5000 -0.5000
v -28.5000 0.5000 0.5000
v -29.5000 0.5000 0.5000
v -31.5000 0.5000 -0.5000
v -30.5000 0.5000 -0.5000
v -30.5000 0.5000 0.5000
v -31.5000 0.5000 0.5000
v 34.5000 -0.5000 -0.5000
v 35.5000 -0.5000 -0.5000
v 35.5000 -0.5000 0.5000
v 34.5000 -0.5000 0.5000
v 28.5000 -0.5000 -0.5000
v 29.5000 -0.5000 -0.5000
v 29.5000 -0.5000 0.5000
v 28.5000 -0.5000 0.5000
v 24.5000 -0.5000 -0.5000
v 25.5000 -0.5000 -0.5000
v 25.5000 -0.5000 0.5000
v 24.5000 -0.5000 0.5000
v 22.5000 -0.5000 -0.5000
v 23.5000 -0.5000 -0.5000
v 23.5000 -0.5000 0.5000
v 22.5000 -0.5000 0.5000
v 20.5000 -0.5000 -0.5000
v 21.5000 -0.5000 -0.5000
v 20.5000 0.5000 -0.5000
v 21.5000 -0.5000 0.5000
v 20.5000 -0.5000 0.5000
v 20.5000 0.5000 0.5000
v 18.5000 -0.5000 -0.5000
v 19.5000 -0.5000 -0.5000
v 19.5000 -0.5000 0.5000
v 18.5000 -0.5000 0.5000
v 15.5000 -0.5000 -0.5000
v 16.5000 -0.5000 -0.5000
v 15.5000 0.5000 -0.5000
v 16.5000 -0.5000 0.5000
v 15.5000 -0.5000 0.5000
v 15.5000 0.5000 0.5000
v 14.5000 -0.5000 -0.5000
v 14.5000 0.5000 -0.5000
v 14.5000 -0.5000 0.5000
v 14.5000 0.5000 0.5000
v 13.5000 -0.5000 -0.5000
v 13.5000 0.5000 -0.5000
v 13.5000 -0.5000 0.5000
v 13.5000 0.5000 0.5000
v 8.5000 -0.5000 -0.5000
v 9.5000 -0.5000 -0.5000
v 9.5000 -0.5000 0.5000
v 8.5000 -0.5000 0.5000
v 4.5000 -0.5000 -0.5000
v 5.5000 -0.5000 -0.5000
v 5.5000 -0.5000 0.5000
v 4.5000 -0.5000 0.5000
v 3.5000 -0.5000 -0.5000
v 3.5000 0.5000 -0.5000
v 3.5000 -0.5000 0.5000
v 3.5000 0.5000 0.5000
v 2.5000 -0.5000 -0.5000
v 2.5000 0.5000 -0.5000
v 2.5000 -0.5000 0.5000
v 2.5000 0.5000 0.5000
v 1.5000 -0.5000 -0.5000
v 1.5000 -0.5000 0.5000
v -1.5000 -0.5000 -0.5000
v -0.5000 -0.5000 -0.5000
v -0.5000 -0.5000 0.5000
v -1.5000 -0.5000 0.5000
v -5.5000 -0.5000 -0.5000
v -4.5000 -0.5000 -0.5000
v -4.5000 -0.5000 0.5000
v -5.5000 -0.5000 0.5000
v -7.5000 -0.5000 -0.5000
v -6.5000 -0.5000 -0.5000
v -6.5000 -0.5000 0.5000
v -7.5000 -0.5000 0.5000
v -15.5000 -0.5000 -0.5000
v -14.5000 -0.5000 -0.5000
v -14.5000 -0.5000 0.5000
v -15.5000 -0.5000 0.5000
v -21.5000 -0.5000 -0.5000
v -20.5000 -0.5000 -0.5000
v -20.5000 -0.5000 0.5000
v -21.5000 -0.5000 0.5000
v -25.5000 -0.5000 -0.5000
v -24.5000 -0.5000 -0.5000
v -24.5000 -0.5000 0.5000
v -25.5000 -0.5000 0.5000
v -29.5000 -0.5000 -0.5000
v -28.5000 -0.5000 -0.5000
v -28.5000 -0.5000 0.5000
v -29.5000 -0.5000 0.5000
v -31.5000 -0.5000 -0.5000
v -30.5000 -0.5000 -0.5000
v -30.5000 -0.5000 0.5000
v -31.5000 -0.5000 0.5000
v -32.5000 -0.5000 -0.5000
v -32.5000 0.5000 -0.5000
v -32.5000 -0.5000 0.5000
v -32.5000 0.5000 0.5000
v -33.5000 -0.5000 -0.5000
v -33.5000 0.5000 -0.5000
v -33.5000 -0.5000 0.5000
v -33.5000 0.5000 0.5000
v -34.5000 -0.5000 -0.5000
v -34.5000 0.5000 -0.5000
v -34.5000 -0.5000 0.5000
v -34.5000 0.5000 0.5000
v 34.5000 -1.5000 -0.5000
v 35.5000 -1.5000 -0.5000
v 35.5000 -1.5000 0.5000
v 34.5000 -1.5000 0.5000
v 28.5000 -1.5000 -0.5000
v 29.5000 -1.5000 -0.5000
v 29.5000 -1.5000 0.5000
v 28.5000 -1.5000 0.5000
v 24.5000 -1.5000 -0.5000
v 25.5000 -1.5000 -0.5000
v 25.5000 -1.5000 0.5000
v 24.5000 -1.5000 0.5000
v 22.5000 -1.5000 -0.5000
v 23.5000 -1.5000 -0.5000
v 23.5000 -1.5000 0.5000
v 22.5000 -1.5000 0.5000
v 19.5000 -1.5000 -0.5000
v 20.5000 -1.5000 -0.5000
v 20.5000 -1.5000 0.5000
v 19.5000 -1.5000 0.5000
v 18.5000 -1.5000 -0.5000
v 18.5000 -1.5000 0.5000
v 12.5000 -1.5000 -0.5000
v 13.5000 -1.5000 -0.5000
v 12.5000 -0.5000 -0.5000
v 13.5000 -1.5000 0.5000
v 12.5000 -1.5000 0.5000
v 12.5000 -0.5000 0.5000
v 8.5000 -1.5000 -0.5000
v 9.5000 -1.5000 -0.5000
v 9.5000 -1.5000 0.5000
v 8.5000 -1.5000 0.5000
v 4.5000 -1.5000 -0.5000
v 5.5000 -1.5000 -0.5000
v 5.5000 -1.5000 0.5000
v 4.5000 -1.5000 0.5000
v 1.5000 -1.5000 -0.5000
v 2.5000 -1.5000 -0.5000
v 2.5000 -1.5000 0.5000
v 1.5000 -1.5000 0.5000
v -1.5000 -1.5000 -0.5000
v -0.5000 -1.5000 -0.5000
v -0.5000 -1.5000 0.5000
v -1.5000 -1.5000 0.5000
v -5.5000 -1.5000 -0.5000
v -4.5000 -1.5000 -0.5000
v -4.5000 -1.5000 0.5000
v -5.5000 -1.5000 0.5000
v -7.5000 -1.5000 -0.5000
v -6.5000 -1.5000 -0.5000
v -6.5000 -1.5000 0.5000
v -7.5000 -1.5000 0.5000
v -15.5000 -1.5000 -0.5000
v -14.5000 -1.5000 -0.5000
v -14.5000 -1.5000 0.5000
v -15.5000 -1.5000 0.5000
v -21.5000 -1.5000 -0.5000
v -20.5000 -1.5000 -0.5000
v -20.5000 -1.5000 0.5000
v -21.5000 -1.5000 0.5000
v -26.5000 -1.5000 -0.5000
v -25.5000 -1.5000 -0.5000
v -26.5000 -0.5000 -0.5000
v -25.5000 -1.5000 0.5000
v -26.5000 -1.5000 0.5000
v -26.5000 -0.5000 0.5000
v -28.5000 -1.5000 -0.5000
v -27.5000 -1.5000 -0.5000
v -27.5000 -0.5000 -0.5000
v -27.5000 -1.5000 0.5000
v -28.5000 -1.5000 0.5000
v -27.5000 -0.5000 0.5000
v -31.5000 -1.5000 -0.5000
v -30.5000 -1.5000 -0.5000
v -30.5000 -1.5000 0.5000
v -31.5000 -1.5000 0.5000
v 33.5000 -2.5000 -0.5000
v 34.5000 -2.5000 -0.5000
v 33.5000 -1.5000 -0.5000
v 34.5000 -2.5000 0.5000
v 33.5000 -2.5000 0.5000
v 33.5000 -1.5000 0.5000
v 32.5000 -2.5000 -0.5000
v 32.5000 -1.5000 -0.5000
v 32.5000 -2.5000 0.5000
v 32.5000 -1.5000 0.5000
v 31.5000 -2.5000 -0.5000
v 31.5000 -1.5000 -0.5000
v 31.5000 -2.5000 0.5000
v 31.5000 -1.5000 0.5000
v 30.5000 -2.5000 -0.5000
v 30.5000 -1.5000 -0.5000
v 30.5000 -2.5000 0.5000
v 30.5000 -1.5000 0.5000
v 27.5000 -2.5000 -0.5000
v 28.5000 -2.5000 -0.5000
v 27.5000 -1.5000 -0.5000
v 28.5000 -2.5000 0.5000
v 27.5000 -2.5000 0.5000
v 27.5000 -1.5000 0.5000
v 26.5000 -2.5000 -0.5000
v 26.5000 -1.5000 -0.5000
v 26.5000 -2.5000 0.5000
v 26.5000 -1.5000 0.5000
v 25.5000 -2.5000 -0.5000
v 25.5000 -2.5000 0.5000
v 22.5000 -2.5000 -0.5000
v 23.5000 -2.5000 -0.5000
v 23.5000 -2.5000 0.5000
v 22.5000 -2.5000 0.5000
v 18.5000 -2.5000 -0.5000
v 19.5000 -2.5000 -0.5000
v 19.5000 -2.5000 0.5000
v 18.5000 -2.5000 0.5000
v 16.5000 -2.5000 -0.5000
v 17.5000 -2.5000 -0.5000
v 17.5000 -1.5000 -0.5000
v 16.5000 -1.5000 -0.5000
v 17.5000 -2.5000 0.5000
v 16.5000 -2.5000 0.5000
v 16.5000 -1.5000 0.5000
v 17.5000 -1.5000 0.5000
v 15.5000 -2.5000 -0.5000
v 15.5000 -1.5000 -0.5000
v 15.5000 -2.5000 0.5000
v 15.5000 -1.5000 0.5000
v 14.5000 -2.5000 -0.5000
v 14.5000 -1.5000 -0.5000
v 14.5000 -2.5000 0.5000
v 14.5000 -1.5000 0.5000
v 13.5000 -2.5000 -0.5000
v 13.5000 -2.5000 0.5000
v 8.5000 -2.5000 -0.5000
v 9.5000 -2.5000 -0.5000
v 9.5000 -2.5000 0.5000
v 8.5000 -2.5000 0.5000
v 4.5000 -2.5000 -0.5000
v 5.5000 -2.5000 -0.5000
v 5.5000 -2.5000 0.5000
v 4.5000 -2.5000 0.5000
v 0.5000 -2.5000 -0.5000
v 1.5000 -2.5000 -0.5000
v 0.5000 -1.5000 -0.5000
v 1.5000 -2.5000 0.5000
v 0.5000 -2.5000 0.5000
v 0.5000 -1.5000 0.5000
v -2.5000 -2.5000 -0.5000
v -1.5000 -2.5000 -0.5000
v -2.5000 -1.5000 -0.5000
v -1.5000 -2.5000 0.5000
v -2.5000 -2.5000 0.5000
v -2.5000 -1.5000 0.5000
v -3.5000 -2.5000 -0.5000
v -3.5000 -1.5000 -0.5000
v -3.5000 -2.5000 0.5000
v -3.5000 -1.5000 0.5000
v -4.5000 -2.5000 -0.5000
v -4.5000 -2.5000 0.5000
v -8.5000 -2.5000 -0.5000
v -7.5000 -2.5000 -0.5000
v -8.5000 -1.5000 -0.5000
v -7.5000 -2.5000 0.5000
v -8.5000 -2.5000 0.5000
v -8.5000 -1.5000 0.5000
v -9.5000 -2.5000 -0.5000
v -9.5000 -1.5000 -0.5000
v -9.5000 -2.5000 0.5000
v -9.5000 -1.5000 0.5000
v -10.5000 -2.5000 -0.5000
v -10.5000 -1.5000 -0.5000
v -10.5000 -2.5000 0.5000
v -10.5000 -1.5000 0.5000
v -11.5000 -2.5000 -0.5000
v -11.5000 -1.5000 -0.5000
v -11.5000 -2.5000 0.5000
v -11.5000 -1.5000 0.5000
v -15.5000 -2.5000 -0.5000
v -14.5000 -2.5000 -0.5000
v -14.5000 -2.5000 0.5000
v -15.5000 -2.5000 0.5000
v -19.5000 -2.5000 -0.5000
v -18.5000 -2.5000 -0.5000
v -18.5000 -1.5000 -0.5000
v -19.5000 -1.5000 -0.5000
v -18.5000 -2.5000 0.5000
v -19.5000 -2.5000 0.5000
v -19.5000 -1.5000 0.5000
v -18.5000 -1.5000 0.5000
v -20.5000 -2.5000 -0.5000
v -20.5000 -2.5000 0.5000
v -21.5000 -2.5000 -0.5000
v -21.5000 -2.5000 0.5000
v -22.5000 -2.5000 -0.5000
v -22.5000 -1.5000 -0.5000
v -22.5000 -2.5000 0.5000
v -22.5000 -1.5000 0.5000
v -23.5000 -2.5000 -0.5000
v -23.5000 -1.5000 -0.5000
v -23.5000 -2.5000 0.5000
v -23.5000 -1.5000 0.5000
v -27.5000 -2.5000 -0.5000
v -26.5000 -2.5000 -0.5000
v -26.5000 -2.5000 0.5000
v -27.5000 -2.5000 0.5000
v -31.5000 -2.5000 -0.5000
v -30.5000 -2.5000 -0.5000
v -30.5000 -2.5000 0.5000
v -31.5000 -2.5000 0.5000
v -32.5000 -2.5000 -0.5000
v -32.5000 -1.5000 -0.5000
v -32.5000 -2.5000 0.5000
v -32.5000 -1.5000 0.5000
v -33.5000 -2.5000 -0.5000
v -33.5000 -1.5000 -0.5000
v -33.5000 -2.5000 0.5000
v -33.5000 -1.5000 0.5000
v -34.5000 -2.5000 -0.5000
v -34.5000 -1.5000 -0.5000
v -34.5000 -2.5000 0.5000
v -34.5000 -1.5000 0.5000
v -35.5000 -2.5000 -0.5000
v -35.5000 -1.5000 -0.5000
v -35.5000 -2.5000 0.5000
v -35.5000 -1.5000 0.5000
vn 0 0 -1
vn 0 0 1
vn 1 0 0
vn 0 1 0
vn 0 -1 0
vn -1 0 0
usemtl right
f 4//1 3//1 2//1 1//1
f 8//2 7//2 6//2 5//2
usemtl left
f 3//3 8//3 5//3 2//3
usemtl top
f 8//4 3//4 4//4 7//4
f 6//5 1//5 2//5 5//5
usemtl right
f 10//1 4//1 1//1 9//1
f 7//2 12//2 11//2 6//2
usemtl top
f 7//4 4//4 10//4 12//4
f 11//5 9//5 1//5 6//5
usemtl right
f 14//1 10//1 9//1 13//1
f 12//2 16//2 15//2 11//2
usemtl top
f 12//4 10//4 14//4 16//4
f 15//5 13//5 9//5 11//5
usemtl right
f 18//1 14//1 13//1 17//1
f 16//2 20//2 19//2 15//2
usemtl left
f 20//6 18//6 17//6 19//6
usemtl top
f 16//4 14//4 18//4 20//4
f 19//5 17//5 13//5 15//5
usemtl right
f 24//1 23//1 22//1 21//1
f 28//2 27//2 26//2 25//2
usemtl left
f 23//3 28//3 25//3 22//3
usemtl top
f 28//4 23//4 24//4 27//4
f 26//5 21//5 22//5 25//5
usemtl right
f 30//1 24//1 21//1 29//1
f 27//2 32//2 31//2 26//2
usemtl top
f 27//4 24//4 30//4 32//4
f 31//5 29//5 21//5 26//5
usemtl right
f 34//1 30//1 29//1 33//1
f 32//2 36//2 35//2 31//2
usemtl left
f 36//6 34//6 33//6 35//6
usemtl top
f 32//4 30//4 34//4 36//4
f 35//5 33//5 29//5 31//5
usemtl right
f 40//1 39//1 38//1 37//1
f 44//2 43//2 42//2 41//2
usemtl left
f 39//3 44//3 41//3 38//3
f 43//6 40//6 37//6 42//6
usemtl top
f 44//4 39//4 40//4 43//4
usemtl right
f 48//1 47//1 46//1 45//1
f 52//2 51//2 50//2 49//2
usemtl left
f 47//3 52//3 49//3 46//3
f 51//6 48//6 45//6 50//6
usemtl top
f 52//4 47//4 48//4 51//4
usemtl right
f 56//1 55//1 54//1 53//1
f 60//2 59//2 58//2 57//2
usemtl left
f 55//3 60//3 57//3 54//3
usemtl top
f 60//4 55//4 56//4 59//4
f 58//5 53//5 54//5 57//5
usemtl right
f 62//1 56//1 53//1 61//1
f 59//2 64//2 63//2 58//2
usemtl top
f 59//4 56//4 62//4 64//4
f 63//5 61//5 53//5 58//5
usemtl right
f 66//1 62//1 61//1 65//1
f 64//2 68//2 67//2 63//2
usemtl top
f 64//4 62//4 66//4 68//4
f 67//5 65//5 61//5 63//5
usemtl right
f 70//1 66//1 65//1 69//1
f 68//2 72//2 71//2 67//2
usemtl left
f 72//6 70//6 69//6 71//6
usemtl top
f 68//4 66//4 70//4 72//4
f 71//5 69//5 65//5 67//5
usemtl right
f 76//1 75//1 74//1 73//1
f 80//2 79//2 78//2 77//2
usemtl left
f 75//3 80//3 77//3 74//3
usemtl top
f 80//4 75//4 76//4 79//4
f 78//5 73//5 74//5 77//5
usemtl right
f 82//1 76//1 73//1 81//1
f 79//2 84//2 83//2 78//2
usemtl top
f 79//4 76//4 82//4 84//4
f 83//5 81//5 73//5 78//5
usemtl right
f 86//1 82//1 81//1 85//1
f 84//2 88//2 87//2 83//2
usemtl top
f 84//4 82//4 86//4 88//4
usemtl right
f 90//1 86//1 85//1 89//1
f 88//2 92//2 91//2 87//2
usemtl top
f 88//4 86//4 90//4 92//4
f 91//5 89//5 85//5 87//5
usemtl right
f 94//1 90//1 89//1 93//1
f 92//2 96//2 95//2 91//2
usemtl left
f 96//6 94//6 93//6 95//6
usemtl top
f 92//4 90//4 94//4 96//4
f 95//5 93//5 89//5 91//5
usemtl right
f 100//1 99//1 98//1 97//1
f 104//2 103//2 102//2 101//2
usemtl left
f 99//3 104//3 101//3 98//3
usemtl top
f 104//4 99//4 100//4 103//4
usemtl right
f 106//1 100//1 97//1 105//1
f 103//2 108//2 107//2 102//2
usemtl top
f 103//4 100//4 106//4 108//4
f 107//5 105//5 97//5 102//5
usemtl right
f 110//1 106//1 105//1 109//1
f 108//2 112//2 111//2 107//2
usemtl top
f 108//4 106//4 110//4 112//4
f 111//5 109//5 105//5 107//5
usemtl right
f 114//1 110//1 109//1 113//1
f 112//2 116//2 115//2 111//2
usemtl left
f 116//6 114//6 113//6 115//6
usemtl top
f 112//4 110//4 114//4 116//4
f 115//5 113//5 109//5 111//5
usemtl right
f 120//1 119//1 118//1 117//1
f 124//2 123//2 122//2 121//2
usemtl left
f 119//3 124//3 121//3 118//3
f 123//6 120//6 117//6 122//6
usemtl top
f 124//4 119//4 120//4 123//4
usemtl right
f 128//1 127//1 126//1 125//1
f 132//2 131//2 130//2 129//2
usemtl left
f 127//3 132//3 129//3 126//3
f 131//6 128//6 125//6 130//6
usemtl top
f 132//4 127//4 128//4 131//4
usemtl right
f 136//1 135//1 134//1 133//1
f 140//2 139//2 138//2 137//2
usemtl left
f 135//3 140//3 137//3 134//3
usemtl top
f 140//4 135//4 136//4 139//4
f 138//5 133//5 134//5 137//5
usemtl right
f 142//1 136//1 133//1 141//1
f 139//2 144//2 143//2 138//2
usemtl top
f 139//4 136//4 142//4 144//4
f 143//5 141//5 133//5 138//5
usemtl right
f 146//1 142//1 141//1 145//1
f 144//2 148//2 147//2 143//2
usemtl top
f 144//4 142//4 146//4 148//4
f 147//5 145//5 141//5 143//5
usemtl right
f 150//1 146//1 145//1 149//1
f 148//2 152//2 151//2 147//2
usemtl left
f 152//6 150//6 149//6 151//6
usemtl top
f 148//4 146//4 150//4 152//4
f 151//5 149//5 145//5 147//5
usemtl right
f 156//1 155//1 154//1 153//1
f 160//2 159//2 158//2 157//2
usemtl left
f 155//3 160//3 157//3 154//3
usemtl top
f 160//4 155//4 156//4 159//4
f 158//5 153//5 154//5 157//5
usemtl right
f 162//1 156//1 153//1 161//1
f 159//2 164//2 163//2 158//2
usemtl top
f 159//4 156//4 162//4 164//4
f 163//5 161//5 153//5 158//5
usemtl right
f 166//1 162//1 161//1 165//1
f 164//2 168//2 167//2 163//2
usemtl top
f 164//4 162//4 166//4 168//4
usemtl right
f 170//1 166//1 165//1 169//1
f 168//2 172//2 171//2 167//2
usemtl top
f 168//4 166//4 170//4 172//4
f 171//5 169//5 165//5 167//5
usemtl right
f 174//1 170//1 169//1 173//1
f 172//2 176//2 175//2 171//2
usemtl left
f 176//6 174//6 173//6 175//6
usemtl top
f 172//4 170//4 174//4 176//4
f 175//5 173//5 169//5 171//5
usemtl right
f 180//1 179//1 178//1 177//1
f 184//2 183//2 182//2 181//2
usemtl left
f 179//3 184//3 181//3 178//3
usemtl top
f 184//4 179//4 180//4 183//4
f 182//5 177//5 178//5 181//5
usemtl right
f 186//1 180//1 177//1 185//1
f 183//2 188//2 187//2 182//2
usemtl top
f 183//4 180//4 186//4 188//4
f 187//5 185//5 177//5 182//5
usemtl right
f 190//1 186//1 185//1 189//1
f 188//2 192//2 191//2 187//2
usemtl top
f 188//4 186//4 190//4 192//4
usemtl right
f 194//1 190//1 189//1 193//1
f 192//2 196//2 195//2 191//2
usemtl top
f 192//4 190//4 194//4 196//4
f 195//5 193//5 189//5 191//5
usemtl right
f 198//1 194//1 193//1 197//1
f 196//2 200//2 199//2 195//2
usemtl left
f 200//6 198//6 197//6 199//6
usemtl top
f 196//4 194//4 198//4 200//4
f 199//5 197//5 193//5 195//5
usemtl right
f 204//1 203//1 202//1 201//1
f 208//2 207//2 206//2 205//2
usemtl left
f 203//3 208//3 205//3 202//3
f 207//6 204//6 201//6 206//6
usemtl top
f 208//4 203//4 204//4 207//4
usemtl right
f 212//1 211//1 210//1 209//1
f 216//2 215//2 214//2 213//2
usemtl left
f 211//3 216//3 213//3 210//3
f 215//6 212//6 209//6 214//6
usemtl top
f 216//4 211//4 212//4 215//4
usemtl right
f 220//1 219//1 218//1 217//1
f 224//2 223//2 222//2 221//2
usemtl left
f 219//3 224//3 221//3 218//3
usemtl top
f 224//4 219//4 220//4 223//4
usemtl right
f 226//1 220//1 217//1 225//1
f 223//2 228//2 227//2 222//2
usemtl top
f 223//4 220//4 226//4 228//4
f 227//5 225//5 217//5 222//5
usemtl right
f 230//1 226//1 225//1 229//1
f 228//2 232//2 231//2 227//2
usemtl top
f 228//4 226//4 230//4 232//4
f 231//5 229//5 225//5 227//5
usemtl right
f 234//1 230//1 229//1 233//1
f 232//2 236//2 235//2 231//2
usemtl top
f 232//4 230//4 234//4 236//4
f 235//5 233//5 229//5 231//5
usemtl right
f 238//1 234//1 233//1 237//1
f 236//2 240//2 239//2 235//2
usemtl left
f 240//6 238//6 237//6 239//6
usemtl top
f 236//4 234//4 238//4 240//4
f 239//5 237//5 233//5 235//5
usemtl right
f 2//1 243//1 242//1 241//1
f 246//2 5//2 245//2 244//2
usemtl left
f 243//3 246//3 244//3 242//3
f 5//6 2//6 241//6 245//6
usemtl top
f 246//4 243//4 2//4 5//4
usemtl right
f 22//1 249//1 248//1 247//1
f 252//2 25//2 251//2 250//2
usemtl left
f 249//3 252//3 250//3 248//3
f 25//6 22//6 247//6 251//6
usemtl top
f 252//4 249//4 22//4 25//4
usemtl right
f 255//1 33//1 254//1 253//1
f 35//2 258//2 257//2 256//2
usemtl left
f 33//3 35//3 256//3 254//3
f 258//6 255//6 253//6 257//6
usemtl top
f 35//4 33//4 255//4 258//4
usemtl right
f 37//1 38//1 260//1 259//1
f 41//2 42//2 262//2 261//2
usemtl left
f 38//3 41//3 261//3 260//3
usemtl right
f 264//1 37//1 259//1 263//1
f 42//2 266//2 265//2 262//2
usemtl left
f 266//6 264//6 263//6 265//6
usemtl top
f 42//4 37//4 264//4 266//4
f 265//5 263//5 259//5 262//5
usemtl right
f 45//1 46//1 268//1 267//1
f 49//2 50//2 270//2 269//2
usemtl left
f 46//3 49//3 269//3 268//3
f 50//6 45//6 267//6 270//6
usemtl right
f 54//1 273//1 272//1 271//1
f 276//2 57//2 275//2 274//2
usemtl left
f 273//3 276//3 274//3 272//3
f 57//6 54//6 271//6 275//6
usemtl top
f 276//4 273//4 54//4 57//4
f 275//5 271//5 272//5 274//5
usemtl right
f 85//1 81//1 278//1 277//1
f 83//2 87//2 280//2 279//2
usemtl left
f 81//3 83//3 279//3 278//3
f 87//6 85//6 277//6 280//6
usemtl right
f 97//1 98//1 282//1 281//1
f 101//2 102//2 284//2 283//2
usemtl left
f 98//3 101//3 283//3 282//3
f 102//6 97//6 281//6 284//6
usemtl right
f 287//1 113//1 286//1 285//1
f 115//2 290//2 289//2 288//2
usemtl left
f 113//3 115//3 288//3 286//3
f 290//6 287//6 285//6 289//6
usemtl top
f 115//4 113//4 287//4 290//4
f 289//5 285//5 286//5 288//5
usemtl right
f 117//1 118//1 292//1 291//1
f 121//2 122//2 294//2 293//2
usemtl left
f 118//3 121//3 293//3 292//3
f 122//6 117//6 291//6 294//6
usemtl right
f 125//1 126//1 296//1 295//1
f 129//2 130//2 298//2 297//2
usemtl left
f 126//3 129//3 297//3 296//3
f 130//6 125//6 295//6 298//6
usemtl right
f 134//1 301//1 300//1 299//1
f 304//2 137//2 303//2 302//2
usemtl left
f 301//3 304//3 302//3 300//3
f 137//6 134//6 299//6 303//6
usemtl top
f 304//4 301//4 134//4 137//4
usemtl right
f 165//1 161//1 306//1 305//1
f 163//2 167//2 308//2 307//2
usemtl left
f 161//3 163//3 307//3 306//3
f 167//6 165//6 305//6 308//6
usemtl right
f 189//1 185//1 310//1 309//1
f 187//2 191//2 312//2 311//2
usemtl left
f 185//3 187//3 311//3 310//3
f 191//6 189//6 309//6 312//6
usemtl right
f 201//1 202//1 314//1 313//1
f 205//2 206//2 316//2 315//2
usemtl left
f 202//3 205//3 315//3 314//3
f 206//6 201//6 313//6 316//6
usemtl right
f 209//1 210//1 318//1 317//1
f 213//2 214//2 320//2 319//2
usemtl left
f 210//3 213//3 319//3 318//3
f 214//6 209//6 317//6 320//6
usemtl right
f 217//1 218//1 322//1 321//1
f 221//2 222//2 324//2 323//2
usemtl left
f 218//3 221//3 323//3 322//3
f 222//6 217//6 321//6 324//6
usemtl right
f 241//1 242//1 326//1 325//1
f 244//2 245//2 328//2 327//2
usemtl left
f 242//3 244//3 327//3 326//3
f 245//6 241//6 325//6 328//6
usemtl right
f 247//1 248//1 330//1 329//1
f 250//2 251//2 332//2 331//2
usemtl left
f 248//3 250//3 331//3 330//3
f 251//6 247//6 329//6 332//6
usemtl right
f 253//1 254//1 334//1 333//1
f 256//2 257//2 336//2 335//2
usemtl left
f 254//3 256//3 335//3 334//3
f 257//6 253//6 333//6 336//6
usemtl right
f 259//1 260//1 338//1 337//1
f 261//2 262//2 340//2 339//2
usemtl left
f 260//3 261//3 339//3 338//3
f 262//6 259//6 337//6 340//6
usemtl right
f 343//1 263//1 342//1 341//1
f 265//2 346//2 345//2 344//2
usemtl left
f 263//3 265//3 344//3 342//3
f 346//6 343//6 341//6 345//6
usemtl top
f 265//4 263//4 343//4 346//4
f 345//5 341//5 342//5 344//5
usemtl right
f 267//1 268//1 348//1 347//1
f 269//2 270//2 350//2 349//2
usemtl left
f 268//3 269//3 349//3 348//3
f 270//6 267//6 347//6 350//6
usemtl right
f 353//1 271//1 352//1 351//1
f 275//2 356//2 355//2 354//2
usemtl left
f 271//3 275//3 354//3 352//3
usemtl top
f 275//4 271//4 353//4 356//4
f 355//5 351//5 352//5 354//5
usemtl right
f 358//1 353//1 351//1 357//1
f 356//2 360//2 359//2 355//2
usemtl top
f 356//4 353//4 358//4 360//4
f 359//5 357//5 351//5 355//5
usemtl right
f 362//1 358//1 357//1 361//1
f 360//2 364//2 363//2 359//2
usemtl left
f 364//6 362//6 361//6 363//6
usemtl top
f 360//4 358//4 362//4 364//4
f 363//5 361//5 357//5 359//5
usemtl right
f 277//1 278//1 366//1 365//1
f 279//2 280//2 368//2 367//2
usemtl left
f 278//3 279//3 367//3 366//3
f 280//6 277//6 365//6 368//6
usemtl right
f 281//1 282//1 370//1 369//1
f 283//2 284//2 372//2 371//2
usemtl left
f 282//3 283//3 371//3 370//3
usemtl right
f 374//1 281//1 369//1 373//1
f 284//2 376//2 375//2 372//2
usemtl top
f 284//4 281//4 374//4 376//4
f 375//5 373//5 369//5 372//5
usemtl right
f 378//1 374//1 373//1 377//1
f 376//2 380//2 379//2 375//2
usemtl top
f 376//4 374//4 378//4 380//4
f 379//5 377//5 373//5 375//5
usemtl right
f 286//1 378//1 377//1 381//1
f 380//2 288//2 382//2 379//2
usemtl left
f 288//6 286//6 381//6 382//6
usemtl top
f 380//4 378//4 286//4 288//4
usemtl right
f 291//1 292//1 384//1 383//1
f 293//2 294//2 386//2 385//2
usemtl left
f 292//3 293//3 385//3 384//3
f 294//6 291//6 383//6 386//6
usemtl right
f 295//1 296//1 388//1 387//1
f 297//2 298//2 390//2 389//2
usemtl left
f 296//3 297//3 389//3 388//3
f 298//6 295//6 387//6 390//6
usemtl right
f 299//1 300//1 392//1 391//1
f 302//2 303//2 394//2 393//2
usemtl left
f 300//3 302//3 393//3 392//3
f 303//6 299//6 391//6 394//6
usemtl right
f 305//1 306//1 396//1 395//1
f 307//2 308//2 398//2 397//2
usemtl left
f 306//3 307//3 397//3 396//3
f 308//6 305//6 395//6 398//6
usemtl right
f 309//1 310//1 400//1 399//1
f 311//2 312//2 402//2 401//2
usemtl left
f 310//3 311//3 401//3 400//3
f 312//6 309//6 399//6 402//6
usemtl right
f 313//1 314//1 404//1 403//1
f 315//2 316//2 406//2 405//2
usemtl left
f 314//3 315//3 405//3 404//3
f 316//6 313//6 403//6 406//6
usemtl top
f 406//5 403//5 404//5 405//5
usemtl right
f 317//1 318//1 408//1 407//1
f 319//2 320//2 410//2 409//2
usemtl left
f 318//3 319//3 409//3 408//3
f 320//6 317//6 407//6 410//6
usemtl top
f 410//5 407//5 408//5 409//5
usemtl right
f 321//1 322//1 412//1 411//1
f 323//2 324//2 414//2 413//2
usemtl left
f 322//3 323//3 413//3 412//3
usemtl right
f 416//1 321//1 411//1 415//1
f 324//2 418//2 417//2 414//2
usemtl top
f 324//4 321//4 416//4 418//4
f 417//5 415//5 411//5 414//5
usemtl right
f 420//1 416//1 415//1 419//1
f 418//2 422//2 421//2 417//2
usemtl top
f 418//4 416//4 420//4 422//4
f 421//5 419//5 415//5 417//5
usemtl right
f 424//1 420//1 419//1 423//1
f 422//2 426//2 425//2 421//2
usemtl left
f 426//6 424//6 423//6 425//6
usemtl top
f 422//4 420//4 424//4 426//4
f 425//5 423//5 419//5 421//5
usemtl right
f 325//1 326//1 428//1 427//1
f 327//2 328//2 430//2 429//2
usemtl left
f 326//3 327//3 429//3 428//3
f 328//6 325//6 427//6 430//6
usemtl top
f 430//5 427//5 428//5 429//5
usemtl right
f 329//1 330//1 432//1 431//1
f 331//2 332//2 434//2 433//2
usemtl left
f 330//3 331//3 433//3 432//3
f 332//6 329//6 431//6 434//6
usemtl top
f 434//5 431//5 432//5 433//5
usemtl right
f 333//1 334//1 436//1 435//1
f 335//2 336//2 438//2 437//2
usemtl left
f 334//3 335//3 437//3 436//3
f 336//6 333//6 435//6 438//6
usemtl top
f 438//5 435//5 436//5 437//5
usemtl right
f 337//1 338//1 440//1 439//1
f 339//2 340//2 442//2 441//2
usemtl left
f 338//3 339//3 441//3 440//3
f 340//6 337//6 439//6 442//6
usemtl right
f 348//1 341//1 444//1 443//1
f 345//2 349//2 446//2 445//2
usemtl left
f 341//3 345//3 445//3 444//3
usemtl top
f 345//4 341//4 348//4 349//4
f 446//5 443//5 444//5 445//5
usemtl right
f 347//1 348//1 443//1 447//1
f 349//2 350//2 448//2 446//2
usemtl left
f 350//6 347//6 447//6 448//6
usemtl right
f 451//1 361//1 450//1 449//1
f 363//2 454//2 453//2 452//2
usemtl left
f 361//3 363//3 452//3 450//3
f 454//6 451//6 449//6 453//6
usemtl top
f 363//4 361//4 451//4 454//4
f 453//5 449//5 450//5 452//5
usemtl right
f 365//1 366//1 456//1 455//1
f 367//2 368//2 458//2 457//2
usemtl left
f 366//3 367//3 457//3 456//3
f 368//6 365//6 455//6 458//6
usemtl right
f 369//1 370//1 460//1 459//1
f 371//2 372//2 462//2 461//2
usemtl left
f 370//3 371//3 461//3 460//3
f 372//6 369//6 459//6 462//6
usemtl right
f 381//1 377//1 464//1 463//1
f 379//2 382//2 466//2 465//2
usemtl left
f 377//3 379//3 465//3 464//3
f 382//6 381//6 463//6 466//6
usemtl top
f 466//5 463//5 464//5 465//5
usemtl right
f 383//1 384//1 468//1 467//1
f 385//2 386//2 470//2 469//2
usemtl left
f 384//3 385//3 469//3 468//3
f 386//6 383//6 467//6 470//6
usemtl top
f 470//5 467//5 468//5 469//5
usemtl right
f 387//1 388//1 472//1 471//1
f 389//2 390//2 474//2 473//2
usemtl left
f 388//3 389//3 473//3 472//3
f 390//6 387//6 471//6 474//6
usemtl top
f 474//5 471//5 472//5 473//5
usemtl right
f 391//1 392//1 476//1 475//1
f 393//2 394//2 478//2 477//2
usemtl left
f 392//3 393//3 477//3 476//3
f 394//6 391//6 475//6 478//6
usemtl top
f 478//5 475//5 476//5 477//5
usemtl right
f 395//1 396//1 480//1 479//1
f 397//2 398//2 482//2 481//2
usemtl left
f 396//3 397//3 481//3 480//3
f 398//6 395//6 479//6 482//6
usemtl right
f 399//1 400//1 484//1 483//1
f 401//2 402//2 486//2 485//2
usemtl left
f 400//3 401//3 485//3 484//3
f 402//6 399//6 483//6 486//6
usemtl right
f 489//1 403//1 488//1 487//1
f 406//2 492//2 491//2 490//2
usemtl left
f 403//3 406//3 490//3 488//3
f 492//6 489//6 487//6 491//6
usemtl top
f 406//4 403//4 489//4 492//4
f 491//5 487//5 488//5 490//5
usemtl right
f 408//1 495//1 494//1 493//1
f 498//2 409//2 497//2 496//2
usemtl left
f 495//3 498//3 496//3 494//3
f 409//6 408//6 493//6 497//6
usemtl top
f 498//4 495//4 408//4 409//4
f 497//5 493//5 494//5 496//5
usemtl right
f 411//1 412//1 500//1 499//1
f 413//2 414//2 502//2 501//2
usemtl left
f 412//3 413//3 501//3 500//3
f 414//6 411//6 499//6 502//6
usemtl right
f 505//1 427//1 504//1 503//1
f 430//2 508//2 507//2 506//2
usemtl left
f 427//3 430//3 506//3 504//3
usemtl top
f 430//4 427//4 505//4 508//4
f 507//5 503//5 504//5 506//5
usemtl right
f 510//1 505//1 503//1 509//1
f 508//2 512//2 511//2 507//2
usemtl top
f 508//4 505//4 510//4 512//4
f 511//5 509//5 503//5 507//5
usemtl right
f 514//1 510//1 509//1 513//1
f 512//2 516//2 515//2 511//2
usemtl top
f 512//4 510//4 514//4 516//4
f 515//5 513//5 509//5 511//5
usemtl right
f 518//1 514//1 513//1 517//1
f 516//2 520//2 519//2 515//2
usemtl left
f 520//6 518//6 517//6 519//6
usemtl top
f 516//4 514//4 518//4 520//4
f 519//5 517//5 513//5 515//5
usemtl right
f 523//1 431//1 522//1 521//1
f 434//2 526//2 525//2 524//2
usemtl left
f 431//3 434//3 524//3 522//3
usemtl top
f 434//4 431//4 523//4 526//4
f 525//5 521//5 522//5 524//5
usemtl right
f 528//1 523//1 521//1 527//1
f 526//2 530//2 529//2 525//2
usemtl top
f 526//4 523//4 528//4 530//4
f 529//5 527//5 521//5 525//5
usemtl right
f 436//1 528//1 527//1 531//1
f 530//2 437//2 532//2 529//2
usemtl left
f 437//6 436//6 531//6 532//6
usemtl top
f 530//4 528//4 436//4 437//4
f 532//5 531//5 527//5 529//5
usemtl right
f 439//1 440//1 534//1 533//1
f 441//2 442//2 536//2 535//2
usemtl left
f 440//3 441//3 535//3 534//3
f 442//6 439//6 533//6 536//6
usemtl top
f 536//5 533//5 534//5 535//5
usemtl right
f 447//1 443//1 538//1 537//1
f 446//2 448//2 540//2 539//2
usemtl left
f 443//3 446//3 539//3 538//3
f 448//6 447//6 537//6 540//6
usemtl top
f 540//5 537//5 538//5 539//5
usemtl right
f 544//1 543//1 542//1 541//1
f 548//2 547//2 546//2 545//2
usemtl left
f 543//3 548//3 545//3 542//3
usemtl top
f 548//4 543//4 544//4 547//4
f 546//5 541//5 542//5 545//5
usemtl right
f 550//1 544//1 541//1 549//1
f 547//2 552//2 551//2 546//2
usemtl top
f 547//4 544//4 550//4 552//4
f 551//5 549//5 541//5 546//5
usemtl right
f 554//1 550//1 549//1 553//1
f 552//2 556//2 555//2 551//2
usemtl top
f 552//4 550//4 554//4 556//4
f 555//5 553//5 549//5 551//5
usemtl right
f 450//1 554//1 553//1 557//1
f 556//2 452//2 558//2 555//2
usemtl left
f 452//6 450//6 557//6 558//6
usemtl top
f 556//4 554//4 450//4 452//4
f 558//5 557//5 553//5 555//5
usemtl right
f 455//1 456//1 560//1 559//1
f 457//2 458//2 562//2 561//2
usemtl left
f 456//3 457//3 561//3 560//3
f 458//6 455//6 559//6 562//6
usemtl top
f 562//5 559//5 560//5 561//5
usemtl right
f 459//1 460//1 564//1 563//1
f 461//2 462//2 566//2 565//2
usemtl left
f 460//3 461//3 565//3 564//3
f 462//6 459//6 563//6 566//6
usemtl top
f 566//5 563//5 564//5 565//5
usemtl right
f 569//1 463//1 568//1 567//1
f 466//2 572//2 571//2 570//2
usemtl left
f 463//3 466//3 570//3 568//3
f 572//6 569//6 567//6 571//6
usemtl top
f 466//4 463//4 569//4 572//4
f 571//5 567//5 568//5 570//5
usemtl right
f 575//1 467//1 574//1 573//1
f 470//2 578//2 577//2 576//2
usemtl left
f 467//3 470//3 576//3 574//3
usemtl top
f 470//4 467//4 575//4 578//4
f 577//5 573//5 574//5 576//5
usemtl right
f 580//1 575//1 573//1 579//1
f 578//2 582//2 581//2 577//2
usemtl top
f 578//4 575//4 580//4 582//4
f 581//5 579//5 573//5 577//5
usemtl right
f 472//1 580//1 579//1 583//1
f 582//2 473//2 584//2 581//2
usemtl left
f 473//6 472//6 583//6 584//6
usemtl top
f 582//4 580//4 472//4 473//4
f 584//5 583//5 579//5 581//5
usemtl right
f 587//1 475//1 586//1 585//1
f 478//2 590//2 589//2 588//2
usemtl left
f 475//3 478//3 588//3 586//3
usemtl top
f 478//4 475//4 587//4 590//4
f 589//5 585//5 586//5 588//5
usemtl right
f 592//1 587//1 585//1 591//1
f 590//2 594//2 593//2 589//2
usemtl top
f 590//4 587//4 592//4 594//4
f 593//5 591//5 585//5 589//5
usemtl right
f 596//1 592//1 591//1 595//1
f 594//2 598//2 597//2 593//2
usemtl top
f 594//4 592//4 596//4 598//4
f 597//5 595//5 591//5 593//5
usemtl right
f 600//1 596//1 595//1 599//1
f 598//2 602//2 601//2 597//2
usemtl left
f 602//6 600//6 599//6 601//6
usemtl top
f 598//4 596//4 600//4 602//4
f 601//5 599//5 595//5 597//5
usemtl right
f 479//1 480//1 604//1 603//1
f 481//2 482//2 606//2 605//2
usemtl left
f 480//3 481//3 605//3 604//3
f 482//6 479//6 603//6 606//6
usemtl top
f 606//5 603//5 604//5 605//5
usemtl right
f 610//1 609//1 608//1 607//1
f 614//2 613//2 612//2 611//2
usemtl left
f 609//3 614//3 611//3 608//3
usemtl top
f 614//4 609//4 610//4 613//4
f 612//5 607//5 608//5 611//5
usemtl right
f 484//1 610//1 607//1 615//1
f 613//2 485//2 616//2 612//2
usemtl top
f 613//4 610//4 484//4 485//4
f 616//5 615//5 607//5 612//5
usemtl right
f 483//1 484//1 615//1 617//1
f 485//2 486//2 618//2 616//2
usemtl top
f 618//5 617//5 615//5 616//5
usemtl right
f 620//1 483//1 617//1 619//1
f 486//2 622//2 621//2 618//2
usemtl top
f 486//4 483//4 620//4 622//4
f 621//5 619//5 617//5 618//5
usemtl right
f 624//1 620//1 619//1 623//1
f 622//2 626//2 625//2 621//2
usemtl left
f 626//6 624//6 623//6 625//6
usemtl top
f 622//4 620//4 624//4 626//4
f 625//5 623//5 619//5 621//5
usemtl right
f 494//1 487//1 628//1 627//1
f 491//2 496//2 630//2 629//2
usemtl left
f 487//3 491//3 629//3 628//3
f 496//6 494//6 627//6 630//6
usemtl top
f 491//4 487//4 494//4 496//4
f 630//5 627//5 628//5 629//5
usemtl right
f 499//1 500//1 632//1 631//1
f 501//2 502//2 634//2 633//2
usemtl left
f 500//3 501//3 633//3 632//3
usemtl top
f 634//5 631//5 632//5 633//5
usemtl right
f 636//1 499//1 631//1 635//1
f 502//2 638//2 637//2 634//2
usemtl top
f 502//4 499//4 636//4 638//4
f 637//5 635//5 631//5 634//5
usemtl right
f 640//1 636//1 635//1 639//1
f 638//2 642//2 641//2 637//2
usemtl top
f 638//4 636//4 640//4 642//4
f 641//5 639//5 635//5 637//5
usemtl right
f 644//1 640//1 639//1 643//1
f 642//2 646//2 645//2 641//2
usemtl top
f 642//4 640//4 644//4 646//4
f 645//5 643//5 639//5 641//5
usemtl right
f 648//1 644//1 643//1 647//1
f 646//2 650//2 649//2 645//2
usemtl left
f 650//6 648//6 647//6 649//6
usemtl top
f 646//4 644//4 648//4 650//4
f 649//5 647//5 643//5 645//5
