# Constructive brand kit — generated by @constructive-io/brand-3d
mtllib constructive-mark-cubes.mtl
o constructive-mark-cubes
v 0.5000 1.0000 0.5000
v 0.5000 1.0000 -0.5000
v 0.5000 2.0000 -0.5000
v 0.5000 2.0000 0.5000
v -0.5000 1.0000 -0.5000
v -0.5000 1.0000 0.5000
v -0.5000 2.0000 0.5000
v -0.5000 2.0000 -0.5000
v 0.5000 1.0000 1.5000
v 0.5000 1.0000 0.5000
v 0.5000 2.0000 0.5000
v 0.5000 2.0000 1.5000
v -0.5000 1.0000 0.5000
v -0.5000 1.0000 1.5000
v -0.5000 2.0000 1.5000
v -0.5000 2.0000 0.5000
v 0.5000 0.0000 -0.5000
v 0.5000 0.0000 -1.5000
v 0.5000 1.0000 -1.5000
v 0.5000 1.0000 -0.5000
v -0.5000 0.0000 -1.5000
v -0.5000 0.0000 -0.5000
v -0.5000 1.0000 -0.5000
v -0.5000 1.0000 -1.5000
v 0.5000 -1.0000 -0.5000
v 0.5000 -1.0000 -1.5000
v 0.5000 0.0000 -1.5000
v 0.5000 0.0000 -0.5000
v -0.5000 -1.0000 -1.5000
v -0.5000 -1.0000 -0.5000
v -0.5000 0.0000 -0.5000
v -0.5000 0.0000 -1.5000
v 0.5000 -2.0000 0.5000
v 0.5000 -2.0000 -0.5000
v 0.5000 -1.0000 -0.5000
v 0.5000 -1.0000 0.5000
v -0.5000 -2.0000 -0.5000
v -0.5000 -2.0000 0.5000
v -0.5000 -1.0000 0.5000
v -0.5000 -1.0000 -0.5000
v 0.5000 -2.0000 1.5000
v 0.5000 -2.0000 0.5000
v 0.5000 -1.0000 0.5000
v 0.5000 -1.0000 1.5000
v -0.5000 -2.0000 0.5000
v -0.5000 -2.0000 1.5000
v -0.5000 -1.0000 1.5000
v -0.5000 -1.0000 0.5000
vn 1 0 0
vn -1 0 0
vn 0 0 -1
vn 0 0 1
vn 0 1 0
vn 0 -1 0
g cube_0
usemtl right
f 1//1 2//1 3//1 4//1
f 5//2 6//2 7//2 8//2
usemtl left
f 2//3 5//3 8//3 3//3
f 6//4 1//4 4//4 7//4
usemtl top
f 7//5 4//5 3//5 8//5
f 5//6 2//6 1//6 6//6
g cube_1
usemtl right
f 9//1 10//1 11//1 12//1
f 13//2 14//2 15//2 16//2
usemtl left
f 10//3 13//3 16//3 11//3
f 14//4 9//4 12//4 15//4
usemtl top
f 15//5 12//5 11//5 16//5
f 13//6 10//6 9//6 14//6
g cube_2
usemtl right
f 17//1 18//1 19//1 20//1
f 21//2 22//2 23//2 24//2
usemtl left
f 18//3 21//3 24//3 19//3
f 22//4 17//4 20//4 23//4
usemtl top
f 23//5 20//5 19//5 24//5
f 21//6 18//6 17//6 22//6
g cube_3
usemtl right
f 25//1 26//1 27//1 28//1
f 29//2 30//2 31//2 32//2
usemtl left
f 26//3 29//3 32//3 27//3
f 30//4 25//4 28//4 31//4
usemtl top
f 31//5 28//5 27//5 32//5
f 29//6 26//6 25//6 30//6
g cube_4
usemtl right
f 33//1 34//1 35//1 36//1
f 37//2 38//2 39//2 40//2
usemtl left
f 34//3 37//3 40//3 35//3
f 38//4 33//4 36//4 39//4
usemtl top
f 39//5 36//5 35//5 40//5
f 37//6 34//6 33//6 38//6
g cube_5
usemtl right
f 41//1 42//1 43//1 44//1
f 45//2 46//2 47//2 48//2
usemtl left
f 42//3 45//3 48//3 43//3
f 46//4 41//4 44//4 47//4
usemtl top
f 47//5 44//5 43//5 48//5
f 45//6 42//6 41//6 46//6
