# Constructive brand kit — generated by @constructive-io/brand-3d
mtllib constructive-mark.mtl
o constructive-mark
v 0.5000 1.0000 0.5000
v 0.5000 1.0000 -0.5000
v 0.5000 2.0000 -0.5000
v 0.5000 2.0000 0.5000
v -0.5000 1.0000 -0.5000
v -0.5000 1.0000 0.5000
v -0.5000 2.0000 0.5000
v -0.5000 2.0000 -0.5000
v 0.5000 1.0000 1.5000
v 0.5000 2.0000 1.5000
v -0.5000 1.0000 1.5000
v -0.5000 2.0000 1.5000
v 0.5000 0.0000 -0.5000
v 0.5000 0.0000 -1.5000
v 0.5000 1.0000 -1.5000
v -0.5000 0.0000 -1.5000
v -0.5000 0.0000 -0.5000
v -0.5000 1.0000 -1.5000
v 0.5000 -1.0000 -0.5000
v 0.5000 -1.0000 -1.5000
v -0.5000 -1.0000 -1.5000
v -0.5000 -1.0000 -0.5000
v 0.5000 -2.0000 0.5000
v 0.5000 -2.0000 -0.5000
v 0.5000 -1.0000 0.5000
v -0.5000 -2.0000 -0.5000
v -0.5000 -2.0000 0.5000
v -0.5000 -1.0000 0.5000
v 0.5000 -2.0000 1.5000
v 0.5000 -1.0000 1.5000
v -0.5000 -2.0000 1.5000
v -0.5000 -1.0000 1.5000
vn 1 0 0
vn -1 0 0
vn 0 0 -1
vn 0 1 0
vn 0 -1 0
vn 0 0 1
usemtl right
f 1//1 2//1 3//1 4//1
f 5//2 6//2 7//2 8//2
usemtl left
f 2//3 5//3 8//3 3//3
usemtl top
f 7//4 4//4 3//4 8//4
f 5//5 2//5 1//5 6//5
usemtl right
f 9//1 1//1 4//1 10//1
f 6//2 11//2 12//2 7//2
usemtl left
f 11//6 9//6 10//6 12//6
usemtl top
f 12//4 10//4 4//4 7//4
f 6//5 1//5 9//5 11//5
usemtl right
f 13//1 14//1 15//1 2//1
f 16//2 17//2 5//2 18//2
usemtl left
f 14//3 16//3 18//3 15//3
f 17//6 13//6 2//6 5//6
usemtl top
f 5//4 2//4 15//4 18//4
usemtl right
f 19//1 20//1 14//1 13//1
f 21//2 22//2 17//2 16//2
usemtl left
f 20//3 21//3 16//3 14//3
f 22//6 19//6 13//6 17//6
usemtl top
f 21//5 20//5 19//5 22//5
usemtl right
f 23//1 24//1 19//1 25//1
f 26//2 27//2 28//2 22//2
usemtl left
f 24//3 26//3 22//3 19//3
usemtl top
f 28//4 25//4 19//4 22//4
f 26//5 24//5 23//5 27//5
usemtl right
f 29//1 23//1 25//1 30//1
f 27//2 31//2 32//2 28//2
usemtl left
f 31//6 29//6 30//6 32//6
usemtl top
f 32//4 30//4 25//4 28//4
f 27//5 23//5 29//5 31//5
