# Constructive brand kit — generated by @constructive-io/brand-3d
mtllib constructive-wordmark-cubes.mtl
o constructive-wordmark-cubes
v 0.5000 1.5000 -33.5000
v 0.5000 1.5000 -34.5000
v 0.5000 2.5000 -34.5000
v 0.5000 2.5000 -33.5000
v -0.5000 1.5000 -34.5000
v -0.5000 1.5000 -33.5000
v -0.5000 2.5000 -33.5000
v -0.5000 2.5000 -34.5000
v 0.5000 1.5000 -32.5000
v 0.5000 1.5000 -33.5000
v 0.5000 2.5000 -33.5000
v 0.5000 2.5000 -32.5000
v -0.5000 1.5000 -33.5000
v -0.5000 1.5000 -32.5000
v -0.5000 2.5000 -32.5000
v -0.5000 2.5000 -33.5000
v 0.5000 1.5000 -31.5000
v 0.5000 1.5000 -32.5000
v 0.5000 2.5000 -32.5000
v 0.5000 2.5000 -31.5000
v -0.5000 1.5000 -32.5000
v -0.5000 1.5000 -31.5000
v -0.5000 2.5000 -31.5000
v -0.5000 2.5000 -32.5000
v 0.5000 1.5000 -30.5000
v 0.5000 1.5000 -31.5000
v 0.5000 2.5000 -31.5000
v 0.5000 2.5000 -30.5000
v -0.5000 1.5000 -31.5000
v -0.5000 1.5000 -30.5000
v -0.5000 2.5000 -30.5000
v -0.5000 2.5000 -31.5000
v 0.5000 1.5000 -27.5000
v 0.5000 1.5000 -28.5000
v 0.5000 2.5000 -28.5000
v 0.5000 2.5000 -27.5000
v -0.5000 1.5000 -28.5000
v -0.5000 1.5000 -27.5000
v -0.5000 2.5000 -27.5000
v -0.5000 2.5000 -28.5000
v 0.5000 1.5000 -26.5000
v 0.5000 1.5000 -27.5000
v 0.5000 2.5000 -27.5000
v 0.5000 2.5000 -26.5000
v -0.5000 1.5000 -27.5000
v -0.5000 1.5000 -26.5000
v -0.5000 2.5000 -26.5000
v -0.5000 2.5000 -27.5000
v 0.5000 1.5000 -25.5000
v 0.5000 1.5000 -26.5000
v 0.5000 2.5000 -26.5000
v 0.5000 2.5000 -25.5000
v -0.5000 1.5000 -26.5000
v -0.5000 1.5000 -25.5000
v -0.5000 2.5000 -25.5000
v -0.5000 2.5000 -26.5000
v 0.5000 1.5000 -22.5000
v 0.5000 1.5000 -23.5000
v 0.5000 2.5000 -23.5000
v 0.5000 2.5000 -22.5000
v -0.5000 1.5000 -23.5000
v -0.5000 1.5000 -22.5000
v -0.5000 2.5000 -22.5000
v -0.5000 2.5000 -23.5000
v 0.5000 1.5000 -18.5000
v 0.5000 1.5000 -19.5000
v 0.5000 2.5000 -19.5000
v 0.5000 2.5000 -18.5000
v -0.5000 1.5000 -19.5000
v -0.5000 1.5000 -18.5000
v -0.5000 2.5000 -18.5000
v -0.5000 2.5000 -19.5000
v 0.5000 1.5000 -15.5000
v 0.5000 1.5000 -16.5000
v 0.5000 2.5000 -16.5000
v 0.5000 2.5000 -15.5000
v -0.5000 1.5000 -16.5000
v -0.5000 1.5000 -15.5000
v -0.5000 2.5000 -15.5000
v -0.5000 2.5000 -16.5000
v 0.5000 1.5000 -14.5000
v 0.5000 1.5000 -15.5000
v 0.5000 2.5000 -15.5000
v 0.5000 2.5000 -14.5000
v -0.5000 1.5000 -15.5000
v -0.5000 1.5000 -14.5000
v -0.5000 2.5000 -14.5000
v -0.5000 2.5000 -15.5000
v 0.5000 1.5000 -13.5000
v 0.5000 1.5000 -14.5000
v 0.5000 2.5000 -14.5000
v 0.5000 2.5000 -13.5000
v -0.5000 1.5000 -14.5000
v -0.5000 1.5000 -13.5000
v -0.5000 2.5000 -13.5000
v -0.5000 2.5000 -14.5000
v 0.5000 1.5000 -12.5000
v 0.5000 1.5000 -13.5000
v 0.5000 2.5000 -13.5000
v 0.5000 2.5000 -12.5000
v -0.5000 1.5000 -13.5000
v -0.5000 1.5000 -12.5000
v -0.5000 2.5000 -12.5000
v -0.5000 2.5000 -13.5000
v 0.5000 1.5000 -10.5000
v 0.5000 1.5000 -11.5000
v 0.5000 2.5000 -11.5000
v 0.5000 2.5000 -10.5000
v -0.5000 1.5000 -11.5000
v -0.5000 1.5000 -10.5000
v -0.5000 2.5000 -10.5000
v -0.5000 2.5000 -11.5000
v 0.5000 1.5000 -9.5000
v 0.5000 1.5000 -10.5000
v 0.5000 2.5000 -10.5000
v 0.5000 2.5000 -9.5000
v -0.5000 1.5000 -10.5000
v -0.5000 1.5000 -9.5000
v -0.5000 2.5000 -9.5000
v -0.5000 2.5000 -10.5000
v 0.5000 1.5000 -8.5000
v 0.5000 1.5000 -9.5000
v 0.5000 2.5000 -9.5000
v 0.5000 2.5000 -8.5000
v -0.5000 1.5000 -9.5000
v -0.5000 1.5000 -8.5000
v -0.5000 2.5000 -8.5000
v -0.5000 2.5000 -9.5000
v 0.5000 1.5000 -7.5000
v 0.5000 1.5000 -8.5000
v 0.5000 2.5000 -8.5000
v 0.5000 2.5000 -7.5000
v -0.5000 1.5000 -8.5000
v -0.5000 1.5000 -7.5000
v -0.5000 2.5000 -7.5000
v -0.5000 2.5000 -8.5000
v 0.5000 1.5000 -6.5000
v 0.5000 1.5000 -7.5000
v 0.5000 2.5000 -7.5000
v 0.5000 2.5000 -6.5000
v -0.5000 1.5000 -7.5000
v -0.5000 1.5000 -6.5000
v -0.5000 2.5000 -6.5000
v -0.5000 2.5000 -7.5000
v 0.5000 1.5000 -4.5000
v 0.5000 1.5000 -5.5000
v 0.5000 2.5000 -5.5000
v 0.5000 2.5000 -4.5000
v -0.5000 1.5000 -5.5000
v -0.5000 1.5000 -4.5000
v -0.5000 2.5000 -4.5000
v -0.5000 2.5000 -5.5000
v 0.5000 1.5000 -3.5000
v 0.5000 1.5000 -4.5000
v 0.5000 2.5000 -4.5000
v 0.5000 2.5000 -3.5000
v -0.5000 1.5000 -4.5000
v -0.5000 1.5000 -3.5000
v -0.5000 2.5000 -3.5000
v -0.5000 2.5000 -4.5000
v 0.5000 1.5000 -2.5000
v 0.5000 1.5000 -3.5000
v 0.5000 2.5000 -3.5000
v 0.5000 2.5000 -2.5000
v -0.5000 1.5000 -3.5000
v -0.5000 1.5000 -2.5000
v -0.5000 2.5000 -2.5000
v -0.5000 2.5000 -3.5000
v 0.5000 1.5000 -1.5000
v 0.5000 1.5000 -2.5000
v 0.5000 2.5000 -2.5000
v 0.5000 2.5000 -1.5000
v -0.5000 1.5000 -2.5000
v -0.5000 1.5000 -1.5000
v -0.5000 2.5000 -1.5000
v -0.5000 2.5000 -2.5000
v 0.5000 1.5000 1.5000
v 0.5000 1.5000 0.5000
v 0.5000 2.5000 0.5000
v 0.5000 2.5000 1.5000
v -0.5000 1.5000 0.5000
v -0.5000 1.5000 1.5000
v -0.5000 2.5000 1.5000
v -0.5000 2.5000 0.5000
v 0.5000 1.5000 5.5000
v 0.5000 1.5000 4.5000
v 0.5000 2.5000 4.5000
v 0.5000 2.5000 5.5000
v -0.5000 1.5000 4.5000
v -0.5000 1.5000 5.5000
v -0.5000 2.5000 5.5000
v -0.5000 2.5000 4.5000
v 0.5000 1.5000 8.5000
v 0.5000 1.5000 7.5000
v 0.5000 2.5000 7.5000
v 0.5000 2.5000 8.5000
v -0.5000 1.5000 7.5000
v -0.5000 1.5000 8.5000
v -0.5000 2.5000 8.5000
v -0.5000 2.5000 7.5000
v 0.5000 1.5000 9.5000
v 0.5000 1.5000 8.5000
v 0.5000 2.5000 8.5000
v 0.5000 2.5000 9.5000
v -0.5000 1.5000 8.5000
v -0.5000 1.5000 9.5000
v -0.5000 2.5000 9.5000
v -0.5000 2.5000 8.5000
v 0.5000 1.5000 10.5000
v 0.5000 1.5000 9.5000
v 0.5000 2.5000 9.5000
v 0.5000 2.5000 10.5000
v -0.5000 1.5000 9.5000
v -0.5000 1.5000 10.5000
v -0.5000 2.5000 10.5000
v -0.5000 2.5000 9.5000
v 0.5000 1.5000 11.5000
v 0.5000 1.5000 10.5000
v 0.5000 2.5000 10.5000
v 0.5000 2.5000 11.5000
v -0.5000 1.5000 10.5000
v -0.5000 1.5000 11.5000
v -0.5000 2.5000 11.5000
v -0.5000 2.5000 10.5000
v 0.5000 1.5000 13.5000
v 0.5000 1.5000 12.5000
v 0.5000 2.5000 12.5000
v 0.5000 2.5000 13.5000
v -0.5000 1.5000 12.5000
v -0.5000 1.5000 13.5000
v -0.5000 2.5000 13.5000
v -0.5000 2.5000 12.5000
v 0.5000 1.5000 14.5000
v 0.5000 1.5000 13.5000
v 0.5000 2.5000 13.5000
v 0.5000 2.5000 14.5000
v -0.5000 1.5000 13.5000
v -0.5000 1.5000 14.5000
v -0.5000 2.5000 14.5000
v -0.5000 2.5000 13.5000
v 0.5000 1.5000 15.5000
v 0.5000 1.5000 14.5000
v 0.5000 2.5000 14.5000
v 0.5000 2.5000 15.5000
v -0.5000 1.5000 14.5000
v -0.5000 1.5000 15.5000
v -0.5000 2.5000 15.5000
v -0.5000 2.5000 14.5000
v 0.5000 1.5000 16.5000
v 0.5000 1.5000 15.5000
v 0.5000 2.5000 15.5000
v 0.5000 2.5000 16.5000
v -0.5000 1.5000 15.5000
v -0.5000 1.5000 16.5000
v -0.5000 2.5000 16.5000
v -0.5000 2.5000 15.5000
v 0.5000 1.5000 17.5000
v 0.5000 1.5000 16.5000
v 0.5000 2.5000 16.5000
v 0.5000 2.5000 17.5000
v -0.5000 1.5000 16.5000
v -0.5000 1.5000 17.5000
v -0.5000 2.5000 17.5000
v -0.5000 2.5000 16.5000
v 0.5000 1.5000 19.5000
v 0.5000 1.5000 18.5000
v 0.5000 2.5000 18.5000
v 0.5000 2.5000 19.5000
v -0.5000 1.5000 18.5000
v -0.5000 1.5000 19.5000
v -0.5000 2.5000 19.5000
v -0.5000 2.5000 18.5000
v 0.5000 1.5000 20.5000
v 0.5000 1.5000 19.5000
v 0.5000 2.5000 19.5000
v 0.5000 2.5000 20.5000
v -0.5000 1.5000 19.5000
v -0.5000 1.5000 20.5000
v -0.5000 2.5000 20.5000
v -0.5000 2.5000 19.5000
v 0.5000 1.5000 21.5000
v 0.5000 1.5000 20.5000
v 0.5000 2.5000 20.5000
v 0.5000 2.5000 21.5000
v -0.5000 1.5000 20.5000
v -0.5000 1.5000 21.5000
v -0.5000 2.5000 21.5000
v -0.5000 2.5000 20.5000
v 0.5000 1.5000 22.5000
v 0.5000 1.5000 21.5000
v 0.5000 2.5000 21.5000
v 0.5000 2.5000 22.5000
v -0.5000 1.5000 21.5000
v -0.5000 1.5000 22.5000
v -0.5000 2.5000 22.5000
v -0.5000 2.5000 21.5000
v 0.5000 1.5000 23.5000
v 0.5000 1.5000 22.5000
v 0.5000 2.5000 22.5000
v 0.5000 2.5000 23.5000
v -0.5000 1.5000 22.5000
v -0.5000 1.5000 23.5000
v -0.5000 2.5000 23.5000
v -0.5000 2.5000 22.5000
v 0.5000 1.5000 25.5000
v 0.5000 1.5000 24.5000
v 0.5000 2.5000 24.5000
v 0.5000 2.5000 25.5000
v -0.5000 1.5000 24.5000
v -0.5000 1.5000 25.5000
v -0.5000 2.5000 25.5000
v -0.5000 2.5000 24.5000
v 0.5000 1.5000 29.5000
v 0.5000 1.5000 28.5000
v 0.5000 2.5000 28.5000
v 0.5000 2.5000 29.5000
v -0.5000 1.5000 28.5000
v -0.5000 1.5000 29.5000
v -0.5000 2.5000 29.5000
v -0.5000 2.5000 28.5000
v 0.5000 1.5000 31.5000
v 0.5000 1.5000 30.5000
v 0.5000 2.5000 30.5000
v 0.5000 2.5000 31.5000
v -0.5000 1.5000 30.5000
v -0.5000 1.5000 31.5000
v -0.5000 2.5000 31.5000
v -0.5000 2.5000 30.5000
v 0.5000 1.5000 32.5000
v 0.5000 1.5000 31.5000
v 0.5000 2.5000 31.5000
v 0.5000 2.5000 32.5000
v -0.5000 1.5000 31.5000
v -0.5000 1.5000 32.5000
v -0.5000 2.5000 32.5000
v -0.5000 2.5000 31.5000
v 0.5000 1.5000 33.5000
v 0.5000 1.5000 32.5000
v 0.5000 2.5000 32.5000
v 0.5000 2.5000 33.5000
v -0.5000 1.5000 32.5000
v -0.5000 1.5000 33.5000
v -0.5000 2.5000 33.5000
v -0.5000 2.5000 32.5000
v 0.5000 1.5000 34.5000
v 0.5000 1.5000 33.5000
v 0.5000 2.5000 33.5000
v 0.5000 2.5000 34.5000
v -0.5000 1.5000 33.5000
v -0.5000 1.5000 34.5000
v -0.5000 2.5000 34.5000
v -0.5000 2.5000 33.5000
v 0.5000 1.5000 35.5000
v 0.5000 1.5000 34.5000
v 0.5000 2.5000 34.5000
v 0.5000 2.5000 35.5000
v -0.5000 1.5000 34.5000
v -0.5000 1.5000 35.5000
v -0.5000 2.5000 35.5000
v -0.5000 2.5000 34.5000
v 0.5000 0.5000 -34.5000
v 0.5000 0.5000 -35.5000
v 0.5000 1.5000 -35.5000
v 0.5000 1.5000 -34.5000
v -0.5000 0.5000 -35.5000
v -0.5000 0.5000 -34.5000
v -0.5000 1.5000 -34.5000
v -0.5000 1.5000 -35.5000
v 0.5000 0.5000 -28.5000
v 0.5000 0.5000 -29.5000
v 0.5000 1.5000 -29.5000
v 0.5000 1.5000 -28.5000
v -0.5000 0.5000 -29.5000
v -0.5000 0.5000 -28.5000
v -0.5000 1.5000 -28.5000
v -0.5000 1.5000 -29.5000
v 0.5000 0.5000 -24.5000
v 0.5000 0.5000 -25.5000
v 0.5000 1.5000 -25.5000
v 0.5000 1.5000 -24.5000
v -0.5000 0.5000 -25.5000
v -0.5000 0.5000 -24.5000
v -0.5000 1.5000 -24.5000
v -0.5000 1.5000 -25.5000
v 0.5000 0.5000 -22.5000
v 0.5000 0.5000 -23.5000
v 0.5000 1.5000 -23.5000
v 0.5000 1.5000 -22.5000
v -0.5000 0.5000 -23.5000
v -0.5000 0.5000 -22.5000
v -0.5000 1.5000 -22.5000
v -0.5000 1.5000 -23.5000
v 0.5000 0.5000 -21.5000
v 0.5000 0.5000 -22.5000
v 0.5000 1.5000 -22.5000
v 0.5000 1.5000 -21.5000
v -0.5000 0.5000 -22.5000
v -0.5000 0.5000 -21.5000
v -0.5000 1.5000 -21.5000
v -0.5000 1.5000 -22.5000
v 0.5000 0.5000 -18.5000
v 0.5000 0.5000 -19.5000
v 0.5000 1.5000 -19.5000
v 0.5000 1.5000 -18.5000
v -0.5000 0.5000 -19.5000
v -0.5000 0.5000 -18.5000
v -0.5000 1.5000 -18.5000
v -0.5000 1.5000 -19.5000
v 0.5000 0.5000 -16.5000
v 0.5000 0.5000 -17.5000
v 0.5000 1.5000 -17.5000
v 0.5000 1.5000 -16.5000
v -0.5000 0.5000 -17.5000
v -0.5000 0.5000 -16.5000
v -0.5000 1.5000 -16.5000
v -0.5000 1.5000 -17.5000
v 0.5000 0.5000 -8.5000
v 0.5000 0.5000 -9.5000
v 0.5000 1.5000 -9.5000
v 0.5000 1.5000 -8.5000
v -0.5000 0.5000 -9.5000
v -0.5000 0.5000 -8.5000
v -0.5000 1.5000 -8.5000
v -0.5000 1.5000 -9.5000
v 0.5000 0.5000 -4.5000
v 0.5000 0.5000 -5.5000
v 0.5000 1.5000 -5.5000
v 0.5000 1.5000 -4.5000
v -0.5000 0.5000 -5.5000
v -0.5000 0.5000 -4.5000
v -0.5000 1.5000 -4.5000
v -0.5000 1.5000 -5.5000
v 0.5000 0.5000 -0.5000
v 0.5000 0.5000 -1.5000
v 0.5000 1.5000 -1.5000
v 0.5000 1.5000 -0.5000
v -0.5000 0.5000 -1.5000
v -0.5000 0.5000 -0.5000
v -0.5000 1.5000 -0.5000
v -0.5000 1.5000 -1.5000
v 0.5000 0.5000 1.5000
v 0.5000 0.5000 0.5000
v 0.5000 1.5000 0.5000
v 0.5000 1.5000 1.5000
v -0.5000 0.5000 0.5000
v -0.5000 0.5000 1.5000
v -0.5000 1.5000 1.5000
v -0.5000 1.5000 0.5000
v 0.5000 0.5000 5.5000
v 0.5000 0.5000 4.5000
v 0.5000 1.5000 4.5000
v 0.5000 1.5000 5.5000
v -0.5000 0.5000 4.5000
v -0.5000 0.5000 5.5000
v -0.5000 1.5000 5.5000
v -0.5000 1.5000 4.5000
v 0.5000 0.5000 7.5000
v 0.5000 0.5000 6.5000
v 0.5000 1.5000 6.5000
v 0.5000 1.5000 7.5000
v -0.5000 0.5000 6.5000
v -0.5000 0.5000 7.5000
v -0.5000 1.5000 7.5000
v -0.5000 1.5000 6.5000
v 0.5000 0.5000 15.5000
v 0.5000 0.5000 14.5000
v 0.5000 1.5000 14.5000
v 0.5000 1.5000 15.5000
v -0.5000 0.5000 14.5000
v -0.5000 0.5000 15.5000
v -0.5000 1.5000 15.5000
v -0.5000 1.5000 14.5000
v 0.5000 0.5000 21.5000
v 0.5000 0.5000 20.5000
v 0.5000 1.5000 20.5000
v 0.5000 1.5000 21.5000
v -0.5000 0.5000 20.5000
v -0.5000 0.5000 21.5000
v -0.5000 1.5000 21.5000
v -0.5000 1.5000 20.5000
v 0.5000 0.5000 25.5000
v 0.5000 0.5000 24.5000
v 0.5000 1.5000 24.5000
v 0.5000 1.5000 25.5000
v -0.5000 0.5000 24.5000
v -0.5000 0.5000 25.5000
v -0.5000 1.5000 25.5000
v -0.5000 1.5000 24.5000
v 0.5000 0.5000 29.5000
v 0.5000 0.5000 28.5000
v 0.5000 1.5000 28.5000
v 0.5000 1.5000 29.5000
v -0.5000 0.5000 28.5000
v -0.5000 0.5000 29.5000
v -0.5000 1.5000 29.5000
v -0.5000 1.5000 28.5000
v 0.5000 0.5000 31.5000
v 0.5000 0.5000 30.5000
v 0.5000 1.5000 30.5000
v 0.5000 1.5000 31.5000
v -0.5000 0.5000 30.5000
v -0.5000 0.5000 31.5000
v -0.5000 1.5000 31.5000
v -0.5000 1.5000 30.5000
v 0.5000 -0.5000 -34.5000
v 0.5000 -0.5000 -35.5000
v 0.5000 0.5000 -35.5000
v 0.5000 0.5000 -34.5000
v -0.5000 -0.5000 -35.5000
v -0.5000 -0.5000 -34.5000
v -0.5000 0.5000 -34.5000
v -0.5000 0.5000 -35.5000
v 0.5000 -0.5000 -28.5000
v 0.5000 -0.5000 -29.5000
v 0.5000 0.5000 -29.5000
v 0.5000 0.5000 -28.5000
v -0.5000 -0.5000 -29.5000
v -0.5000 -0.5000 -28.5000
v -0.5000 0.5000 -28.5000
v -0.5000 0.5000 -29.5000
v 0.5000 -0.5000 -24.5000
v 0.5000 -0.5000 -25.5000
v 0.5000 0.5000 -25.5000
v 0.5000 0.5000 -24.5000
v -0.5000 -0.5000 -25.5000
v -0.5000 -0.5000 -24.5000
v -0.5000 0.5000 -24.5000
v -0.5000 0.5000 -25.5000
v 0.5000 -0.5000 -22.5000
v 0.5000 -0.5000 -23.5000
v 0.5000 0.5000 -23.5000
v 0.5000 0.5000 -22.5000
v -0.5000 -0.5000 -23.5000
v -0.5000 -0.5000 -22.5000
v -0.5000 0.5000 -22.5000
v -0.5000 0.5000 -23.5000
v 0.5000 -0.5000 -20.5000
v 0.5000 -0.5000 -21.5000
v 0.5000 0.5000 -21.5000
v 0.5000 0.5000 -20.5000
v -0.5000 -0.5000 -21.5000
v -0.5000 -0.5000 -20.5000
v -0.5000 0.5000 -20.5000
v -0.5000 0.5000 -21.5000
v 0.5000 -0.5000 -18.5000
v 0.5000 -0.5000 -19.5000
v 0.5000 0.5000 -19.5000
v 0.5000 0.5000 -18.5000
v -0.5000 -0.5000 -19.5000
v -0.5000 -0.5000 -18.5000
v -0.5000 0.5000 -18.5000
v -0.5000 0.5000 -19.5000
v 0.5000 -0.5000 -15.5000
v 0.5000 -0.5000 -16.5000
v 0.5000 0.5000 -16.5000
v 0.5000 0.5000 -15.5000
v -0.5000 -0.5000 -16.5000
v -0.5000 -0.5000 -15.5000
v -0.5000 0.5000 -15.5000
v -0.5000 0.5000 -16.5000
v 0.5000 -0.5000 -14.5000
v 0.5000 -0.5000 -15.5000
v 0.5000 0.5000 -15.5000
v 0.5000 0.5000 -14.5000
v -0.5000 -0.5000 -15.5000
v -0.5000 -0.5000 -14.5000
v -0.5000 0.5000 -14.5000
v -0.5000 0.5000 -15.5000
v 0.5000 -0.5000 -13.5000
v 0.5000 -0.5000 -14.5000
v 0.5000 0.5000 -14.5000
v 0.5000 0.5000 -13.5000
v -0.5000 -0.5000 -14.5000
v -0.5000 -0.5000 -13.5000
v -0.5000 0.5000 -13.5000
v -0.5000 0.5000 -14.5000
v 0.5000 -0.5000 -8.5000
v 0.5000 -0.5000 -9.5000
v 0.5000 0.5000 -9.5000
v 0.5000 0.5000 -8.5000
v -0.5000 -0.5000 -9.5000
v -0.5000 -0.5000 -8.5000
v -0.5000 0.5000 -8.5000
v -0.5000 0.5000 -9.5000
v 0.5000 -0.5000 -4.5000
v 0.5000 -0.5000 -5.5000
v 0.5000 0.5000 -5.5000
v 0.5000 0.5000 -4.5000
v -0.5000 -0.5000 -5.5000
v -0.5000 -0.5000 -4.5000
v -0.5000 0.5000 -4.5000
v -0.5000 0.5000 -5.5000
v 0.5000 -0.5000 -3.5000
v 0.5000 -0.5000 -4.5000
v 0.5000 0.5000 -4.5000
v 0.5000 0.5000 -3.5000
v -0.5000 -0.5000 -4.5000
v -0.5000 -0.5000 -3.5000
v -0.5000 0.5000 -3.5000
v -0.5000 0.5000 -4.5000
v 0.5000 -0.5000 -2.5000
v 0.5000 -0.5000 -3.5000
v 0.5000 0.5000 -3.5000
v 0.5000 0.5000 -2.5000
v -0.5000 -0.5000 -3.5000
v -0.5000 -0.5000 -2.5000
v -0.5000 0.5000 -2.5000
v -0.5000 0.5000 -3.5000
v 0.5000 -0.5000 -1.5000
v 0.5000 -0.5000 -2.5000
v 0.5000 0.5000 -2.5000
v 0.5000 0.5000 -1.5000
v -0.5000 -0.5000 -2.5000
v -0.5000 -0.5000 -1.5000
v -0.5000 0.5000 -1.5000
v -0.5000 0.5000 -2.5000
v 0.5000 -0.5000 1.5000
v 0.5000 -0.5000 0.5000
v 0.5000 0.5000 0.5000
v 0.5000 0.5000 1.5000
v -0.5000 -0.5000 0.5000
v -0.5000 -0.5000 1.5000
v -0.5000 0.5000 1.5000
v -0.5000 0.5000 0.5000
v 0.5000 -0.5000 5.5000
v 0.5000 -0.5000 4.5000
v 0.5000 0.5000 4.5000
v 0.5000 0.5000 5.5000
v -0.5000 -0.5000 4.5000
v -0.5000 -0.5000 5.5000
v -0.5000 0.5000 5.5000
v -0.5000 0.5000 4.5000
v 0.5000 -0.5000 7.5000
v 0.5000 -0.5000 6.5000
v 0.5000 0.5000 6.5000
v 0.5000 0.5000 7.5000
v -0.5000 -0.5000 6.5000
v -0.5000 -0.5000 7.5000
v -0.5000 0.5000 7.5000
v -0.5000 0.5000 6.5000
v 0.5000 -0.5000 15.5000
v 0.5000 -0.5000 14.5000
v 0.5000 0.5000 14.5000
v 0.5000 0.5000 15.5000
v -0.5000 -0.5000 14.5000
v -0.5000 -0.5000 15.5000
v -0.5000 0.5000 15.5000
v -0.5000 0.5000 14.5000
v 0.5000 -0.5000 21.5000
v 0.5000 -0.5000 20.5000
v 0.5000 0.5000 20.5000
v 0.5000 0.5000 21.5000
v -0.5000 -0.5000 20.5000
v -0.5000 -0.5000 21.5000
v -0.5000 0.5000 21.5000
v -0.5000 0.5000 20.5000
v 0.5000 -0.5000 25.5000
v 0.5000 -0.5000 24.5000
v 0.5000 0.5000 24.5000
v 0.5000 0.5000 25.5000
v -0.5000 -0.5000 24.5000
v -0.5000 -0.5000 25.5000
v -0.5000 0.5000 25.5000
v -0.5000 0.5000 24.5000
v 0.5000 -0.5000 29.5000
v 0.5000 -0.5000 28.5000
v 0.5000 0.5000 28.5000
v 0.5000 0.5000 29.5000
v -0.5000 -0.5000 28.5000
v -0.5000 -0.5000 29.5000
v -0.5000 0.5000 29.5000
v -0.5000 0.5000 28.5000
v 0.5000 -0.5000 31.5000
v 0.5000 -0.5000 30.5000
v 0.5000 0.5000 30.5000
v 0.5000 0.5000 31.5000
v -0.5000 -0.5000 30.5000
v -0.5000 -0.5000 31.5000
v -0.5000 0.5000 31.5000
v -0.5000 0.5000 30.5000
v 0.5000 -0.5000 32.5000
v 0.5000 -0.5000 31.5000
v 0.5000 0.5000 31.5000
v 0.5000 0.5000 32.5000
v -0.5000 -0.5000 31.5000
v -0.5000 -0.5000 32.5000
v -0.5000 0.5000 32.5000
v -0.5000 0.5000 31.5000
v 0.5000 -0.5000 33.5000
v 0.5000 -0.5000 32.5000
v 0.5000 0.5000 32.5000
v 0.5000 0.5000 33.5000
v -0.5000 -0.5000 32.5000
v -0.5000 -0.5000 33.5000
v -0.5000 0.5000 33.5000
v -0.5000 0.5000 32.5000
v 0.5000 -0.5000 34.5000
v 0.5000 -0.5000 33.5000
v 0.5000 0.5000 33.5000
v 0.5000 0.5000 34.5000
v -0.5000 -0.5000 33.5000
v -0.5000 -0.5000 34.5000
v -0.5000 0.5000 34.5000
v -0.5000 0.5000 33.5000
v 0.5000 -1.5000 -34.5000
v 0.5000 -1.5000 -35.5000
v 0.5000 -0.5000 -35.5000
v 0.5000 -0.5000 -34.5000
v -0.5000 -1.5000 -35.5000
v -0.5000 -1.5000 -34.5000
v -0.5000 -0.5000 -34.5000
v -0.5000 -0.5000 -35.5000
v 0.5000 -1.5000 -28.5000
v 0.5000 -1.5000 -29.5000
v 0.5000 -0.5000 -29.5000
v 0.5000 -0.5000 -28.5000
v -0.5000 -1.5000 -29.5000
v -0.5000 -1.5000 -28.5000
v -0.5000 -0.5000 -28.5000
v -0.5000 -0.5000 -29.5000
v 0.5000 -1.5000 -24.5000
v 0.5000 -1.5000 -25.5000
v 0.5000 -0.5000 -25.5000
v 0.5000 -0.5000 -24.5000
v -0.5000 -1.5000 -25.5000
v -0.5000 -1.5000 -24.5000
v -0.5000 -0.5000 -24.5000
v -0.5000 -0.5000 -25.5000
v 0.5000 -1.5000 -22.5000
v 0.5000 -1.5000 -23.5000
v 0.5000 -0.5000 -23.5000
v 0.5000 -0.5000 -22.5000
v -0.5000 -1.5000 -23.5000
v -0.5000 -1.5000 -22.5000
v -0.5000 -0.5000 -22.5000
v -0.5000 -0.5000 -23.5000
v 0.5000 -1.5000 -19.5000
v 0.5000 -1.5000 -20.5000
v 0.5000 -0.5000 -20.5000
v 0.5000 -0.5000 -19.5000
v -0.5000 -1.5000 -20.5000
v -0.5000 -1.5000 -19.5000
v -0.5000 -0.5000 -19.5000
v -0.5000 -0.5000 -20.5000
v 0.5000 -1.5000 -18.5000
v 0.5000 -1.5000 -19.5000
v 0.5000 -0.5000 -19.5000
v 0.5000 -0.5000 -18.5000
v -0.5000 -1.5000 -19.5000
v -0.5000 -1.5000 -18.5000
v -0.5000 -0.5000 -18.5000
v -0.5000 -0.5000 -19.5000
v 0.5000 -1.5000 -12.5000
v 0.5000 -1.5000 -13.5000
v 0.5000 -0.5000 -13.5000
v 0.5000 -0.5000 -12.5000
v -0.5000 -1.5000 -13.5000
v -0.5000 -1.5000 -12.5000
v -0.5000 -0.5000 -12.5000
v -0.5000 -0.5000 -13.5000
v 0.5000 -1.5000 -8.5000
v 0.5000 -1.5000 -9.5000
v 0.5000 -0.5000 -9.5000
v 0.5000 -0.5000 -8.5000
v -0.5000 -1.5000 -9.5000
v -0.5000 -1.5000 -8.5000
v -0.5000 -0.5000 -8.5000
v -0.5000 -0.5000 -9.5000
v 0.5000 -1.5000 -4.5000
v 0.5000 -1.5000 -5.5000
v 0.5000 -0.5000 -5.5000
v 0.5000 -0.5000 -4.5000
v -0.5000 -1.5000 -5.5000
v -0.5000 -1.5000 -4.5000
v -0.5000 -0.5000 -4.5000
v -0.5000 -0.5000 -5.5000
v 0.5000 -1.5000 -1.5000
v 0.5000 -1.5000 -2.5000
v 0.5000 -0.5000 -2.5000
v 0.5000 -0.5000 -1.5000
v -0.5000 -1.5000 -2.5000
v -0.5000 -1.5000 -1.5000
v -0.5000 -0.5000 -1.5000
v -0.5000 -0.5000 -2.5000
v 0.5000 -1.5000 1.5000
v 0.5000 -1.5000 0.5000
v 0.5000 -0.5000 0.5000
v 0.5000 -0.5000 1.5000
v -0.5000 -1.5000 0.5000
v -0.5000 -1.5000 1.5000
v -0.5000 -0.5000 1.5000
v -0.5000 -0.5000 0.5000
v 0.5000 -1.5000 5.5000
v 0.5000 -1.5000 4.5000
v 0.5000 -0.5000 4.5000
v 0.5000 -0.5000 5.5000
v -0.5000 -1.5000 4.5000
v -0.5000 -1.5000 5.5000
v -0.5000 -0.5000 5.5000
v -0.5000 -0.5000 4.5000
v 0.5000 -1.5000 7.5000
v 0.5000 -1.5000 6.5000
v 0.5000 -0.5000 6.5000
v 0.5000 -0.5000 7.5000
v -0.5000 -1.5000 6.5000
v -0.5000 -1.5000 7.5000
v -0.5000 -0.5000 7.5000
v -0.5000 -0.5000 6.5000
v 0.5000 -1.5000 15.5000
v 0.5000 -1.5000 14.5000
v 0.5000 -0.5000 14.5000
v 0.5000 -0.5000 15.5000
v -0.5000 -1.5000 14.5000
v -0.5000 -1.5000 15.5000
v -0.5000 -0.5000 15.5000
v -0.5000 -0.5000 14.5000
v 0.5000 -1.5000 21.5000
v 0.5000 -1.5000 20.5000
v 0.5000 -0.5000 20.5000
v 0.5000 -0.5000 21.5000
v -0.5000 -1.5000 20.5000
v -0.5000 -1.5000 21.5000
v -0.5000 -0.5000 21.5000
v -0.5000 -0.5000 20.5000
v 0.5000 -1.5000 26.5000
v 0.5000 -1.5000 25.5000
v 0.5000 -0.5000 25.5000
v 0.5000 -0.5000 26.5000
v -0.5000 -1.5000 25.5000
v -0.5000 -1.5000 26.5000
v -0.5000 -0.5000 26.5000
v -0.5000 -0.5000 25.5000
v 0.5000 -1.5000 28.5000
v 0.5000 -1.5000 27.5000
v 0.5000 -0.5000 27.5000
v 0.5000 -0.5000 28.5000
v -0.5000 -1.5000 27.5000
v -0.5000 -1.5000 28.5000
v -0.5000 -0.5000 28.5000
v -0.5000 -0.5000 27.5000
v 0.5000 -1.5000 31.5000
v 0.5000 -1.5000 30.5000
v 0.5000 -0.5000 30.5000
v 0.5000 -0.5000 31.5000
v -0.5000 -1.5000 30.5000
v -0.5000 -1.5000 31.5000
v -0.5000 -0.5000 31.5000
v -0.5000 -0.5000 30.5000
v 0.5000 -2.5000 -33.5000
v 0.5000 -2.5000 -34.5000
v 0.5000 -1.5000 -34.5000
v 0.5000 -1.5000 -33.5000
v -0.5000 -2.5000 -34.5000
v -0.5000 -2.5000 -33.5000
v -0.5000 -1.5000 -33.5000
v -0.5000 -1.5000 -34.5000
v 0.5000 -2.5000 -32.5000
v 0.5000 -2.5000 -33.5000
v 0.5000 -1.5000 -33.5000
v 0.5000 -1.5000 -32.5000
v -0.5000 -2.5000 -33.5000
v -0.5000 -2.5000 -32.5000
v -0.5000 -1.5000 -32.5000
v -0.5000 -1.5000 -33.5000
v 0.5000 -2.5000 -31.5000
v 0.5000 -2.5000 -32.5000
v 0.5000 -1.5000 -32.5000
v 0.5000 -1.5000 -31.5000
v -0.5000 -2.5000 -32.5000
v -0.5000 -2.5000 -31.5000
v -0.5000 -1.5000 -31.5000
v -0.5000 -1.5000 -32.5000
v 0.5000 -2.5000 -30.5000
v 0.5000 -2.5000 -31.5000
v 0.5000 -1.5000 -31.5000
v 0.5000 -1.5000 -30.5000
v -0.5000 -2.5000 -31.5000
v -0.5000 -2.5000 -30.5000
v -0.5000 -1.5000 -30.5000
v -0.5000 -1.5000 -31.5000
v 0.5000 -2.5000 -27.5000
v 0.5000 -2.5000 -28.5000
v 0.5000 -1.5000 -28.5000
v 0.5000 -1.5000 -27.5000
v -0.5000 -2.5000 -28.5000
v -0.5000 -2.5000 -27.5000
v -0.5000 -1.5000 -27.5000
v -0.5000 -1.5000 -28.5000
v 0.5000 -2.5000 -26.5000
v 0.5000 -2.5000 -27.5000
v 0.5000 -1.5000 -27.5000
v 0.5000 -1.5000 -26.5000
v -0.5000 -2.5000 -27.5000
v -0.5000 -2.5000 -26.5000
v -0.5000 -1.5000 -26.5000
v -0.5000 -1.5000 -27.5000
v 0.5000 -2.5000 -25.5000
v 0.5000 -2.5000 -26.5000
v 0.5000 -1.5000 -26.5000
v 0.5000 -1.5000 -25.5000
v -0.5000 -2.5000 -26.5000
v -0.5000 -2.5000 -25.5000
v -0.5000 -1.5000 -25.5000
v -0.5000 -1.5000 -26.5000
v 0.5000 -2.5000 -22.5000
v 0.5000 -2.5000 -23.5000
v 0.5000 -1.5000 -23.5000
v 0.5000 -1.5000 -22.5000
v -0.5000 -2.5000 -23.5000
v -0.5000 -2.5000 -22.5000
v -0.5000 -1.5000 -22.5000
v -0.5000 -1.5000 -23.5000
v 0.5000 -2.5000 -18.5000
v 0.5000 -2.5000 -19.5000
v 0.5000 -1.5000 -19.5000
v 0.5000 -1.5000 -18.5000
v -0.5000 -2.5000 -19.5000
v -0.5000 -2.5000 -18.5000
v -0.5000 -1.5000 -18.5000
v -0.5000 -1.5000 -19.5000
v 0.5000 -2.5000 -16.5000
v 0.5000 -2.5000 -17.5000
v 0.5000 -1.5000 -17.5000
v 0.5000 -1.5000 -16.5000
v -0.5000 -2.5000 -17.5000
v -0.5000 -2.5000 -16.5000
v -0.5000 -1.5000 -16.5000
v -0.5000 -1.5000 -17.5000
v 0.5000 -2.5000 -15.5000
v 0.5000 -2.5000 -16.5000
v 0.5000 -1.5000 -16.5000
v 0.5000 -1.5000 -15.5000
v -0.5000 -2.5000 -16.5000
v -0.5000 -2.5000 -15.5000
v -0.5000 -1.5000 -15.5000
v -0.5000 -1.5000 -16.5000
v 0.5000 -2.5000 -14.5000
v 0.5000 -2.5000 -15.5000
v 0.5000 -1.5000 -15.5000
v 0.5000 -1.5000 -14.5000
v -0.5000 -2.5000 -15.5000
v -0.5000 -2.5000 -14.5000
v -0.5000 -1.5000 -14.5000
v -0.5000 -1.5000 -15.5000
v 0.5000 -2.5000 -13.5000
v 0.5000 -2.5000 -14.5000
v 0.5000 -1.5000 -14.5000
v 0.5000 -1.5000 -13.5000
v -0.5000 -2.5000 -14.5000
v -0.5000 -2.5000 -13.5000
v -0.5000 -1.5000 -13.5000
v -0.5000 -1.5000 -14.5000
v 0.5000 -2.5000 -8.5000
v 0.5000 -2.5000 -9.5000
v 0.5000 -1.5000 -9.5000
v 0.5000 -1.5000 -8.5000
v -0.5000 -2.5000 -9.5000
v -0.5000 -2.5000 -8.5000
v -0.5000 -1.5000 -8.5000
v -0.5000 -1.5000 -9.5000
v 0.5000 -2.5000 -4.5000
v 0.5000 -2.5000 -5.5000
v 0.5000 -1.5000 -5.5000
v 0.5000 -1.5000 -4.5000
v -0.5000 -2.5000 -5.5000
v -0.5000 -2.5000 -4.5000
v -0.5000 -1.5000 -4.5000
v -0.5000 -1.5000 -5.5000
v 0.5000 -2.5000 -0.5000
v 0.5000 -2.5000 -1.5000
v 0.5000 -1.5000 -1.5000
v 0.5000 -1.5000 -0.5000
v -0.5000 -2.5000 -1.5000
v -0.5000 -2.5000 -0.5000
v -0.5000 -1.5000 -0.5000
v -0.5000 -1.5000 -1.5000
v 0.5000 -2.5000 2.5000
v 0.5000 -2.5000 1.5000
v 0.5000 -1.5000 1.5000
v 0.5000 -1.5000 2.5000
v -0.5000 -2.5000 1.5000
v -0.5000 -2.5000 2.5000
v -0.5000 -1.5000 2.5000
v -0.5000 -1.5000 1.5000
v 0.5000 -2.5000 3.5000
v 0.5000 -2.5000 2.5000
v 0.5000 -1.5000 2.5000
v 0.5000 -1.5000 3.5000
v -0.5000 -2.5000 2.5000
v -0.5000 -2.5000 3.5000
v -0.5000 -1.5000 3.5000
v -0.5000 -1.5000 2.5000
v 0.5000 -2.5000 4.5000
v 0.5000 -2.5000 3.5000
v 0.5000 -1.5000 3.5000
v 0.5000 -1.5000 4.5000
v -0.5000 -2.5000 3.5000
v -0.5000 -2.5000 4.5000
v -0.5000 -1.5000 4.5000
v -0.5000 -1.5000 3.5000
v 0.5000 -2.5000 8.5000
v 0.5000 -2.5000 7.5000
v 0.5000 -1.5000 7.5000
v 0.5000 -1.5000 8.5000
v -0.5000 -2.5000 7.5000
v -0.5000 -2.5000 8.5000
v -0.5000 -1.5000 8.5000
v -0.5000 -1.5000 7.5000
v 0.5000 -2.5000 9.5000
v 0.5000 -2.5000 8.5000
v 0.5000 -1.5000 8.5000
v 0.5000 -1.5000 9.5000
v -0.5000 -2.5000 8.5000
v -0.5000 -2.5000 9.5000
v -0.5000 -1.5000 9.5000
v -0.5000 -1.5000 8.5000
v 0.5000 -2.5000 10.5000
v 0.5000 -2.5000 9.5000
v 0.5000 -1.5000 9.5000
v 0.5000 -1.5000 10.5000
v -0.5000 -2.5000 9.5000
v -0.5000 -2.5000 10.5000
v -0.5000 -1.5000 10.5000
v -0.5000 -1.5000 9.5000
v 0.5000 -2.5000 11.5000
v 0.5000 -2.5000 10.5000
v 0.5000 -1.5000 10.5000
v 0.5000 -1.5000 11.5000
v -0.5000 -2.5000 10.5000
v -0.5000 -2.5000 11.5000
v -0.5000 -1.5000 11.5000
v -0.5000 -1.5000 10.5000
v 0.5000 -2.5000 15.5000
v 0.5000 -2.5000 14.5000
v 0.5000 -1.5000 14.5000
v 0.5000 -1.5000 15.5000
v -0.5000 -2.5000 14.5000
v -0.5000 -2.5000 15.5000
v -0.5000 -1.5000 15.5000
v -0.5000 -1.5000 14.5000
v 0.5000 -2.5000 19.5000
v 0.5000 -2.5000 18.5000
v 0.5000 -1.5000 18.5000
v 0.5000 -1.5000 19.5000
v -0.5000 -2.5000 18.5000
v -0.5000 -2.5000 19.5000
v -0.5000 -1.5000 19.5000
v -0.5000 -1.5000 18.5000
v 0.5000 -2.5000 20.5000
v 0.5000 -2.5000 19.5000
v 0.5000 -1.5000 19.5000
v 0.5000 -1.5000 20.5000
v -0.5000 -2.5000 19.5000
v -0.5000 -2.5000 20.5000
v -0.5000 -1.5000 20.5000
v -0.5000 -1.5000 19.5000
v 0.5000 -2.5000 21.5000
v 0.5000 -2.5000 20.5000
v 0.5000 -1.5000 20.5000
v 0.5000 -1.5000 21.5000
v -0.5000 -2.5000 20.5000
v -0.5000 -2.5000 21.5000
v -0.5000 -1.5000 21.5000
v -0.5000 -1.5000 20.5000
v 0.5000 -2.5000 22.5000
v 0.5000 -2.5000 21.5000
v 0.5000 -1.5000 21.5000
v 0.5000 -1.5000 22.5000
v -0.5000 -2.5000 21.5000
v -0.5000 -2.5000 22.5000
v -0.5000 -1.5000 22.5000
v -0.5000 -1.5000 21.5000
v 0.5000 -2.5000 23.5000
v 0.5000 -2.5000 22.5000
v 0.5000 -1.5000 22.5000
v 0.5000 -1.5000 23.5000
v -0.5000 -2.5000 22.5000
v -0.5000 -2.5000 23.5000
v -0.5000 -1.5000 23.5000
v -0.5000 -1.5000 22.5000
v 0.5000 -2.5000 27.5000
v 0.5000 -2.5000 26.5000
v 0.5000 -1.5000 26.5000
v 0.5000 -1.5000 27.5000
v -0.5000 -2.5000 26.5000
v -0.5000 -2.5000 27.5000
v -0.5000 -1.5000 27.5000
v -0.5000 -1.5000 26.5000
v 0.5000 -2.5000 31.5000
v 0.5000 -2.5000 30.5000
v 0.5000 -1.5000 30.5000
v 0.5000 -1.5000 31.5000
v -0.5000 -2.5000 30.5000
v -0.5000 -2.5000 31.5000
v -0.5000 -1.5000 31.5000
v -0.5000 -1.5000 30.5000
v 0.5000 -2.5000 32.5000
v 0.5000 -2.5000 31.5000
v 0.5000 -1.5000 31.5000
v 0.5000 -1.5000 32.5000
v -0.5000 -2.5000 31.5000
v -0.5000 -2.5000 32.5000
v -0.5000 -1.5000 32.5000
v -0.5000 -1.5000 31.5000
v 0.5000 -2.5000 33.5000
v 0.5000 -2.5000 32.5000
v 0.5000 -1.5000 32.5000
v 0.5000 -1.5000 33.5000
v -0.5000 -2.5000 32.5000
v -0.5000 -2.5000 33.5000
v -0.5000 -1.5000 33.5000
v -0.5000 -1.5000 32.5000
v 0.5000 -2.5000 34.5000
v 0.5000 -2.5000 33.5000
v 0.5000 -1.5000 33.5000
v 0.5000 -1.5000 34.5000
v -0.5000 -2.5000 33.5000
v -0.5000 -2.5000 34.5000
v -0.5000 -1.5000 34.5000
v -0.5000 -1.5000 33.5000
v 0.5000 -2.5000 35.5000
v 0.5000 -2.5000 34.5000
v 0.5000 -1.5000 34.5000
v 0.5000 -1.5000 35.5000
v -0.5000 -2.5000 34.5000
v -0.5000 -2.5000 35.5000
v -0.5000 -1.5000 35.5000
v -0.5000 -1.5000 34.5000
vn 1 0 0
vn -1 0 0
vn 0 0 -1
vn 0 0 1
vn 0 1 0
vn 0 -1 0
g cube_0
usemtl right
f 1//1 2//1 3//1 4//1
f 5//2 6//2 7//2 8//2
usemtl left
f 2//3 5//3 8//3 3//3
f 6//4 1//4 4//4 7//4
usemtl top
f 7//5 4//5 3//5 8//5
f 5//6 2//6 1//6 6//6
g cube_1
usemtl right
f 9//1 10//1 11//1 12//1
f 13//2 14//2 15//2 16//2
usemtl left
f 10//3 13//3 16//3 11//3
f 14//4 9//4 12//4 15//4
usemtl top
f 15//5 12//5 11//5 16//5
f 13//6 10//6 9//6 14//6
g cube_2
usemtl right
f 17//1 18//1 19//1 20//1
f 21//2 22//2 23//2 24//2
usemtl left
f 18//3 21//3 24//3 19//3
f 22//4 17//4 20//4 23//4
usemtl top
f 23//5 20//5 19//5 24//5
f 21//6 18//6 17//6 22//6
g cube_3
usemtl right
f 25//1 26//1 27//1 28//1
f 29//2 30//2 31//2 32//2
usemtl left
f 26//3 29//3 32//3 27//3
f 30//4 25//4 28//4 31//4
usemtl top
f 31//5 28//5 27//5 32//5
f 29//6 26//6 25//6 30//6
g cube_4
usemtl right
f 33//1 34//1 35//1 36//1
f 37//2 38//2 39//2 40//2
usemtl left
f 34//3 37//3 40//3 35//3
f 38//4 33//4 36//4 39//4
usemtl top
f 39//5 36//5 35//5 40//5
f 37//6 34//6 33//6 38//6
g cube_5
usemtl right
f 41//1 42//1 43//1 44//1
f 45//2 46//2 47//2 48//2
usemtl left
f 42//3 45//3 48//3 43//3
f 46//4 41//4 44//4 47//4
usemtl top
f 47//5 44//5 43//5 48//5
f 45//6 42//6 41//6 46//6
g cube_6
usemtl right
f 49//1 50//1 51//1 52//1
f 53//2 54//2 55//2 56//2
usemtl left
f 50//3 53//3 56//3 51//3
f 54//4 49//4 52//4 55//4
usemtl top
f 55//5 52//5 51//5 56//5
f 53//6 50//6 49//6 54//6
g cube_7
usemtl right
f 57//1 58//1 59//1 60//1
f 61//2 62//2 63//2 64//2
usemtl left
f 58//3 61//3 64//3 59//3
f 62//4 57//4 60//4 63//4
usemtl top
f 63//5 60//5 59//5 64//5
f 61//6 58//6 57//6 62//6
g cube_8
usemtl right
f 65//1 66//1 67//1 68//1
f 69//2 70//2 71//2 72//2
usemtl left
f 66//3 69//3 72//3 67//3
f 70//4 65//4 68//4 71//4
usemtl top
f 71//5 68//5 67//5 72//5
f 69//6 66//6 65//6 70//6
g cube_9
usemtl right
f 73//1 74//1 75//1 76//1
f 77//2 78//2 79//2 80//2
usemtl left
f 74//3 77//3 80//3 75//3
f 78//4 73//4 76//4 79//4
usemtl top
f 79//5 76//5 75//5 80//5
f 77//6 74//6 73//6 78//6
g cube_10
usemtl right
f 81//1 82//1 83//1 84//1
f 85//2 86//2 87//2 88//2
usemtl left
f 82//3 85//3 88//3 83//3
f 86//4 81//4 84//4 87//4
usemtl top
f 87//5 84//5 83//5 88//5
f 85//6 82//6 81//6 86//6
g cube_11
usemtl right
f 89//1 90//1 91//1 92//1
f 93//2 94//2 95//2 96//2
usemtl left
f 90//3 93//3 96//3 91//3
f 94//4 89//4 92//4 95//4
usemtl top
f 95//5 92//5 91//5 96//5
f 93//6 90//6 89//6 94//6
g cube_12
usemtl right
f 97//1 98//1 99//1 100//1
f 101//2 102//2 103//2 104//2
usemtl left
f 98//3 101//3 104//3 99//3
f 102//4 97//4 100//4 103//4
usemtl top
f 103//5 100//5 99//5 104//5
f 101//6 98//6 97//6 102//6
g cube_13
usemtl right
f 105//1 106//1 107//1 108//1
f 109//2 110//2 111//2 112//2
usemtl left
f 106//3 109//3 112//3 107//3
f 110//4 105//4 108//4 111//4
usemtl top
f 111//5 108//5 107//5 112//5
f 109//6 106//6 105//6 110//6
g cube_14
usemtl right
f 113//1 114//1 115//1 116//1
f 117//2 118//2 119//2 120//2
usemtl left
f 114//3 117//3 120//3 115//3
f 118//4 113//4 116//4 119//4
usemtl top
f 119//5 116//5 115//5 120//5
f 117//6 114//6 113//6 118//6
g cube_15
usemtl right
f 121//1 122//1 123//1 124//1
f 125//2 126//2 127//2 128//2
usemtl left
f 122//3 125//3 128//3 123//3
f 126//4 121//4 124//4 127//4
usemtl top
f 127//5 124//5 123//5 128//5
f 125//6 122//6 121//6 126//6
g cube_16
usemtl right
f 129//1 130//1 131//1 132//1
f 133//2 134//2 135//2 136//2
usemtl left
f 130//3 133//3 136//3 131//3
f 134//4 129//4 132//4 135//4
usemtl top
f 135//5 132//5 131//5 136//5
f 133//6 130//6 129//6 134//6
g cube_17
usemtl right
f 137//1 138//1 139//1 140//1
f 141//2 142//2 143//2 144//2
usemtl left
f 138//3 141//3 144//3 139//3
f 142//4 137//4 140//4 143//4
usemtl top
f 143//5 140//5 139//5 144//5
f 141//6 138//6 137//6 142//6
g cube_18
usemtl right
f 145//1 146//1 147//1 148//1
f 149//2 150//2 151//2 152//2
usemtl left
f 146//3 149//3 152//3 147//3
f 150//4 145//4 148//4 151//4
usemtl top
f 151//5 148//5 147//5 152//5
f 149//6 146//6 145//6 150//6
g cube_19
usemtl right
f 153//1 154//1 155//1 156//1
f 157//2 158//2 159//2 160//2
usemtl left
f 154//3 157//3 160//3 155//3
f 158//4 153//4 156//4 159//4
usemtl top
f 159//5 156//5 155//5 160//5
f 157//6 154//6 153//6 158//6
g cube_20
usemtl right
f 161//1 162//1 163//1 164//1
f 165//2 166//2 167//2 168//2
usemtl left
f 162//3 165//3 168//3 163//3
f 166//4 161//4 164//4 167//4
usemtl top
f 167//5 164//5 163//5 168//5
f 165//6 162//6 161//6 166//6
g cube_21
usemtl right
f 169//1 170//1 171//1 172//1
f 173//2 174//2 175//2 176//2
usemtl left
f 170//3 173//3 176//3 171//3
f 174//4 169//4 172//4 175//4
usemtl top
f 175//5 172//5 171//5 176//5
f 173//6 170//6 169//6 174//6
g cube_22
usemtl right
f 177//1 178//1 179//1 180//1
f 181//2 182//2 183//2 184//2
usemtl left
f 178//3 181//3 184//3 179//3
f 182//4 177//4 180//4 183//4
usemtl top
f 183//5 180//5 179//5 184//5
f 181//6 178//6 177//6 182//6
g cube_23
usemtl right
f 185//1 186//1 187//1 188//1
f 189//2 190//2 191//2 192//2
usemtl left
f 186//3 189//3 192//3 187//3
f 190//4 185//4 188//4 191//4
usemtl top
f 191//5 188//5 187//5 192//5
f 189//6 186//6 185//6 190//6
g cube_24
usemtl right
f 193//1 194//1 195//1 196//1
f 197//2 198//2 199//2 200//2
usemtl left
f 194//3 197//3 200//3 195//3
f 198//4 193//4 196//4 199//4
usemtl top
f 199//5 196//5 195//5 200//5
f 197//6 194//6 193//6 198//6
g cube_25
usemtl right
f 201//1 202//1 203//1 204//1
f 205//2 206//2 207//2 208//2
usemtl left
f 202//3 205//3 208//3 203//3
f 206//4 201//4 204//4 207//4
usemtl top
f 207//5 204//5 203//5 208//5
f 205//6 202//6 201//6 206//6
g cube_26
usemtl right
f 209//1 210//1 211//1 212//1
f 213//2 214//2 215//2 216//2
usemtl left
f 210//3 213//3 216//3 211//3
f 214//4 209//4 212//4 215//4
usemtl top
f 215//5 212//5 211//5 216//5
f 213//6 210//6 209//6 214//6
g cube_27
usemtl right
f 217//1 218//1 219//1 220//1
f 221//2 222//2 223//2 224//2
usemtl left
f 218//3 221//3 224//3 219//3
f 222//4 217//4 220//4 223//4
usemtl top
f 223//5 220//5 219//5 224//5
f 221//6 218//6 217//6 222//6
g cube_28
usemtl right
f 225//1 226//1 227//1 228//1
f 229//2 230//2 231//2 232//2
usemtl left
f 226//3 229//3 232//3 227//3
f 230//4 225//4 228//4 231//4
usemtl top
f 231//5 228//5 227//5 232//5
f 229//6 226//6 225//6 230//6
g cube_29
usemtl right
f 233//1 234//1 235//1 236//1
f 237//2 238//2 239//2 240//2
usemtl left
f 234//3 237//3 240//3 235//3
f 238//4 233//4 236//4 239//4
usemtl top
f 239//5 236//5 235//5 240//5
f 237//6 234//6 233//6 238//6
g cube_30
usemtl right
f 241//1 242//1 243//1 244//1
f 245//2 246//2 247//2 248//2
usemtl left
f 242//3 245//3 248//3 243//3
f 246//4 241//4 244//4 247//4
usemtl top
f 247//5 244//5 243//5 248//5
f 245//6 242//6 241//6 246//6
g cube_31
usemtl right
f 249//1 250//1 251//1 252//1
f 253//2 254//2 255//2 256//2
usemtl left
f 250//3 253//3 256//3 251//3
f 254//4 249//4 252//4 255//4
usemtl top
f 255//5 252//5 251//5 256//5
f 253//6 250//6 249//6 254//6
g cube_32
usemtl right
f 257//1 258//1 259//1 260//1
f 261//2 262//2 263//2 264//2
usemtl left
f 258//3 261//3 264//3 259//3
f 262//4 257//4 260//4 263//4
usemtl top
f 263//5 260//5 259//5 264//5
f 261//6 258//6 257//6 262//6
g cube_33
usemtl right
f 265//1 266//1 267//1 268//1
f 269//2 270//2 271//2 272//2
usemtl left
f 266//3 269//3 272//3 267//3
f 270//4 265//4 268//4 271//4
usemtl top
f 271//5 268//5 267//5 272//5
f 269//6 266//6 265//6 270//6
g cube_34
usemtl right
f 273//1 274//1 275//1 276//1
f 277//2 278//2 279//2 280//2
usemtl left
f 274//3 277//3 280//3 275//3
f 278//4 273//4 276//4 279//4
usemtl top
f 279//5 276//5 275//5 280//5
f 277//6 274//6 273//6 278//6
g cube_35
usemtl right
f 281//1 282//1 283//1 284//1
f 285//2 286//2 287//2 288//2
usemtl left
f 282//3 285//3 288//3 283//3
f 286//4 281//4 284//4 287//4
usemtl top
f 287//5 284//5 283//5 288//5
f 285//6 282//6 281//6 286//6
g cube_36
usemtl right
f 289//1 290//1 291//1 292//1
f 293//2 294//2 295//2 296//2
usemtl left
f 290//3 293//3 296//3 291//3
f 294//4 289//4 292//4 295//4
usemtl top
f 295//5 292//5 291//5 296//5
f 293//6 290//6 289//6 294//6
g cube_37
usemtl right
f 297//1 298//1 299//1 300//1
f 301//2 302//2 303//2 304//2
usemtl left
f 298//3 301//3 304//3 299//3
f 302//4 297//4 300//4 303//4
usemtl top
f 303//5 300//5 299//5 304//5
f 301//6 298//6 297//6 302//6
g cube_38
usemtl right
f 305//1 306//1 307//1 308//1
f 309//2 310//2 311//2 312//2
usemtl left
f 306//3 309//3 312//3 307//3
f 310//4 305//4 308//4 311//4
usemtl top
f 311//5 308//5 307//5 312//5
f 309//6 306//6 305//6 310//6
g cube_39
usemtl right
f 313//1 314//1 315//1 316//1
f 317//2 318//2 319//2 320//2
usemtl left
f 314//3 317//3 320//3 315//3
f 318//4 313//4 316//4 319//4
usemtl top
f 319//5 316//5 315//5 320//5
f 317//6 314//6 313//6 318//6
g cube_40
usemtl right
f 321//1 322//1 323//1 324//1
f 325//2 326//2 327//2 328//2
usemtl left
f 322//3 325//3 328//3 323//3
f 326//4 321//4 324//4 327//4
usemtl top
f 327//5 324//5 323//5 328//5
f 325//6 322//6 321//6 326//6
g cube_41
usemtl right
f 329//1 330//1 331//1 332//1
f 333//2 334//2 335//2 336//2
usemtl left
f 330//3 333//3 336//3 331//3
f 334//4 329//4 332//4 335//4
usemtl top
f 335//5 332//5 331//5 336//5
f 333//6 330//6 329//6 334//6
g cube_42
usemtl right
f 337//1 338//1 339//1 340//1
f 341//2 342//2 343//2 344//2
usemtl left
f 338//3 341//3 344//3 339//3
f 342//4 337//4 340//4 343//4
usemtl top
f 343//5 340//5 339//5 344//5
f 341//6 338//6 337//6 342//6
g cube_43
usemtl right
f 345//1 346//1 347//1 348//1
f 349//2 350//2 351//2 352//2
usemtl left
f 346//3 349//3 352//3 347//3
f 350//4 345//4 348//4 351//4
usemtl top
f 351//5 348//5 347//5 352//5
f 349//6 346//6 345//6 350//6
g cube_44
usemtl right
f 353//1 354//1 355//1 356//1
f 357//2 358//2 359//2 360//2
usemtl left
f 354//3 357//3 360//3 355//3
f 358//4 353//4 356//4 359//4
usemtl top
f 359//5 356//5 355//5 360//5
f 357//6 354//6 353//6 358//6
g cube_45
usemtl right
f 361//1 362//1 363//1 364//1
f 365//2 366//2 367//2 368//2
usemtl left
f 362//3 365//3 368//3 363//3
f 366//4 361//4 364//4 367//4
usemtl top
f 367//5 364//5 363//5 368//5
f 365//6 362//6 361//6 366//6
g cube_46
usemtl right
f 369//1 370//1 371//1 372//1
f 373//2 374//2 375//2 376//2
usemtl left
f 370//3 373//3 376//3 371//3
f 374//4 369//4 372//4 375//4
usemtl top
f 375//5 372//5 371//5 376//5
f 373//6 370//6 369//6 374//6
g cube_47
usemtl right
f 377//1 378//1 379//1 380//1
f 381//2 382//2 383//2 384//2
usemtl left
f 378//3 381//3 384//3 379//3
f 382//4 377//4 380//4 383//4
usemtl top
f 383//5 380//5 379//5 384//5
f 381//6 378//6 377//6 382//6
g cube_48
usemtl right
f 385//1 386//1 387//1 388//1
f 389//2 390//2 391//2 392//2
usemtl left
f 386//3 389//3 392//3 387//3
f 390//4 385//4 388//4 391//4
usemtl top
f 391//5 388//5 387//5 392//5
f 389//6 386//6 385//6 390//6
g cube_49
usemtl right
f 393//1 394//1 395//1 396//1
f 397//2 398//2 399//2 400//2
usemtl left
f 394//3 397//3 400//3 395//3
f 398//4 393//4 396//4 399//4
usemtl top
f 399//5 396//5 395//5 400//5
f 397//6 394//6 393//6 398//6
g cube_50
usemtl right
f 401//1 402//1 403//1 404//1
f 405//2 406//2 407//2 408//2
usemtl left
f 402//3 405//3 408//3 403//3
f 406//4 401//4 404//4 407//4
usemtl top
f 407//5 404//5 403//5 408//5
f 405//6 402//6 401//6 406//6
g cube_51
usemtl right
f 409//1 410//1 411//1 412//1
f 413//2 414//2 415//2 416//2
usemtl left
f 410//3 413//3 416//3 411//3
f 414//4 409//4 412//4 415//4
usemtl top
f 415//5 412//5 411//5 416//5
f 413//6 410//6 409//6 414//6
g cube_52
usemtl right
f 417//1 418//1 419//1 420//1
f 421//2 422//2 423//2 424//2
usemtl left
f 418//3 421//3 424//3 419//3
f 422//4 417//4 420//4 423//4
usemtl top
f 423//5 420//5 419//5 424//5
f 421//6 418//6 417//6 422//6
g cube_53
usemtl right
f 425//1 426//1 427//1 428//1
f 429//2 430//2 431//2 432//2
usemtl left
f 426//3 429//3 432//3 427//3
f 430//4 425//4 428//4 431//4
usemtl top
f 431//5 428//5 427//5 432//5
f 429//6 426//6 425//6 430//6
g cube_54
usemtl right
f 433//1 434//1 435//1 436//1
f 437//2 438//2 439//2 440//2
usemtl left
f 434//3 437//3 440//3 435//3
f 438//4 433//4 436//4 439//4
usemtl top
f 439//5 436//5 435//5 440//5
f 437//6 434//6 433//6 438//6
g cube_55
usemtl right
f 441//1 442//1 443//1 444//1
f 445//2 446//2 447//2 448//2
usemtl left
f 442//3 445//3 448//3 443//3
f 446//4 441//4 444//4 447//4
usemtl top
f 447//5 444//5 443//5 448//5
f 445//6 442//6 441//6 446//6
g cube_56
usemtl right
f 449//1 450//1 451//1 452//1
f 453//2 454//2 455//2 456//2
usemtl left
f 450//3 453//3 456//3 451//3
f 454//4 449//4 452//4 455//4
usemtl top
f 455//5 452//5 451//5 456//5
f 453//6 450//6 449//6 454//6
g cube_57
usemtl right
f 457//1 458//1 459//1 460//1
f 461//2 462//2 463//2 464//2
usemtl left
f 458//3 461//3 464//3 459//3
f 462//4 457//4 460//4 463//4
usemtl top
f 463//5 460//5 459//5 464//5
f 461//6 458//6 457//6 462//6
g cube_58
usemtl right
f 465//1 466//1 467//1 468//1
f 469//2 470//2 471//2 472//2
usemtl left
f 466//3 469//3 472//3 467//3
f 470//4 465//4 468//4 471//4
usemtl top
f 471//5 468//5 467//5 472//5
f 469//6 466//6 465//6 470//6
g cube_59
usemtl right
f 473//1 474//1 475//1 476//1
f 477//2 478//2 479//2 480//2
usemtl left
f 474//3 477//3 480//3 475//3
f 478//4 473//4 476//4 479//4
usemtl top
f 479//5 476//5 475//5 480//5
f 477//6 474//6 473//6 478//6
g cube_60
usemtl right
f 481//1 482//1 483//1 484//1
f 485//2 486//2 487//2 488//2
usemtl left
f 482//3 485//3 488//3 483//3
f 486//4 481//4 484//4 487//4
usemtl top
f 487//5 484//5 483//5 488//5
f 485//6 482//6 481//6 486//6
g cube_61
usemtl right
f 489//1 490//1 491//1 492//1
f 493//2 494//2 495//2 496//2
usemtl left
f 490//3 493//3 496//3 491//3
f 494//4 489//4 492//4 495//4
usemtl top
f 495//5 492//5 491//5 496//5
f 493//6 490//6 489//6 494//6
g cube_62
usemtl right
f 497//1 498//1 499//1 500//1
f 501//2 502//2 503//2 504//2
usemtl left
f 498//3 501//3 504//3 499//3
f 502//4 497//4 500//4 503//4
usemtl top
f 503//5 500//5 499//5 504//5
f 501//6 498//6 497//6 502//6
g cube_63
usemtl right
f 505//1 506//1 507//1 508//1
f 509//2 510//2 511//2 512//2
usemtl left
f 506//3 509//3 512//3 507//3
f 510//4 505//4 508//4 511//4
usemtl top
f 511//5 508//5 507//5 512//5
f 509//6 506//6 505//6 510//6
g cube_64
usemtl right
f 513//1 514//1 515//1 516//1
f 517//2 518//2 519//2 520//2
usemtl left
f 514//3 517//3 520//3 515//3
f 518//4 513//4 516//4 519//4
usemtl top
f 519//5 516//5 515//5 520//5
f 517//6 514//6 513//6 518//6
g cube_65
usemtl right
f 521//1 522//1 523//1 524//1
f 525//2 526//2 527//2 528//2
usemtl left
f 522//3 525//3 528//3 523//3
f 526//4 521//4 524//4 527//4
usemtl top
f 527//5 524//5 523//5 528//5
f 525//6 522//6 521//6 526//6
g cube_66
usemtl right
f 529//1 530//1 531//1 532//1
f 533//2 534//2 535//2 536//2
usemtl left
f 530//3 533//3 536//3 531//3
f 534//4 529//4 532//4 535//4
usemtl top
f 535//5 532//5 531//5 536//5
f 533//6 530//6 529//6 534//6
g cube_67
usemtl right
f 537//1 538//1 539//1 540//1
f 541//2 542//2 543//2 544//2
usemtl left
f 538//3 541//3 544//3 539//3
f 542//4 537//4 540//4 543//4
usemtl top
f 543//5 540//5 539//5 544//5
f 541//6 538//6 537//6 542//6
g cube_68
usemtl right
f 545//1 546//1 547//1 548//1
f 549//2 550//2 551//2 552//2
usemtl left
f 546//3 549//3 552//3 547//3
f 550//4 545//4 548//4 551//4
usemtl top
f 551//5 548//5 547//5 552//5
f 549//6 546//6 545//6 550//6
g cube_69
usemtl right
f 553//1 554//1 555//1 556//1
f 557//2 558//2 559//2 560//2
usemtl left
f 554//3 557//3 560//3 555//3
f 558//4 553//4 556//4 559//4
usemtl top
f 559//5 556//5 555//5 560//5
f 557//6 554//6 553//6 558//6
g cube_70
usemtl right
f 561//1 562//1 563//1 564//1
f 565//2 566//2 567//2 568//2
usemtl left
f 562//3 565//3 568//3 563//3
f 566//4 561//4 564//4 567//4
usemtl top
f 567//5 564//5 563//5 568//5
f 565//6 562//6 561//6 566//6
g cube_71
usemtl right
f 569//1 570//1 571//1 572//1
f 573//2 574//2 575//2 576//2
usemtl left
f 570//3 573//3 576//3 571//3
f 574//4 569//4 572//4 575//4
usemtl top
f 575//5 572//5 571//5 576//5
f 573//6 570//6 569//6 574//6
g cube_72
usemtl right
f 577//1 578//1 579//1 580//1
f 581//2 582//2 583//2 584//2
usemtl left
f 578//3 581//3 584//3 579//3
f 582//4 577//4 580//4 583//4
usemtl top
f 583//5 580//5 579//5 584//5
f 581//6 578//6 577//6 582//6
g cube_73
usemtl right
f 585//1 586//1 587//1 588//1
f 589//2 590//2 591//2 592//2
usemtl left
f 586//3 589//3 592//3 587//3
f 590//4 585//4 588//4 591//4
usemtl top
f 591//5 588//5 587//5 592//5
f 589//6 586//6 585//6 590//6
g cube_74
usemtl right
f 593//1 594//1 595//1 596//1
f 597//2 598//2 599//2 600//2
usemtl left
f 594//3 597//3 600//3 595//3
f 598//4 593//4 596//4 599//4
usemtl top
f 599//5 596//5 595//5 600//5
f 597//6 594//6 593//6 598//6
g cube_75
usemtl right
f 601//1 602//1 603//1 604//1
f 605//2 606//2 607//2 608//2
usemtl left
f 602//3 605//3 608//3 603//3
f 606//4 601//4 604//4 607//4
usemtl top
f 607//5 604//5 603//5 608//5
f 605//6 602//6 601//6 606//6
g cube_76
usemtl right
f 609//1 610//1 611//1 612//1
f 613//2 614//2 615//2 616//2
usemtl left
f 610//3 613//3 616//3 611//3
f 614//4 609//4 612//4 615//4
usemtl top
f 615//5 612//5 611//5 616//5
f 613//6 610//6 609//6 614//6
g cube_77
usemtl right
f 617//1 618//1 619//1 620//1
f 621//2 622//2 623//2 624//2
usemtl left
f 618//3 621//3 624//3 619//3
f 622//4 617//4 620//4 623//4
usemtl top
f 623//5 620//5 619//5 624//5
f 621//6 618//6 617//6 622//6
g cube_78
usemtl right
f 625//1 626//1 627//1 628//1
f 629//2 630//2 631//2 632//2
usemtl left
f 626//3 629//3 632//3 627//3
f 630//4 625//4 628//4 631//4
usemtl top
f 631//5 628//5 627//5 632//5
f 629//6 626//6 625//6 630//6
g cube_79
usemtl right
f 633//1 634//1 635//1 636//1
f 637//2 638//2 639//2 640//2
usemtl left
f 634//3 637//3 640//3 635//3
f 638//4 633//4 636//4 639//4
usemtl top
f 639//5 636//5 635//5 640//5
f 637//6 634//6 633//6 638//6
g cube_80
usemtl right
f 641//1 642//1 643//1 644//1
f 645//2 646//2 647//2 648//2
usemtl left
f 642//3 645//3 648//3 643//3
f 646//4 641//4 644//4 647//4
usemtl top
f 647//5 644//5 643//5 648//5
f 645//6 642//6 641//6 646//6
g cube_81
usemtl right
f 649//1 650//1 651//1 652//1
f 653//2 654//2 655//2 656//2
usemtl left
f 650//3 653//3 656//3 651//3
f 654//4 649//4 652//4 655//4
usemtl top
f 655//5 652//5 651//5 656//5
f 653//6 650//6 649//6 654//6
g cube_82
usemtl right
f 657//1 658//1 659//1 660//1
f 661//2 662//2 663//2 664//2
usemtl left
f 658//3 661//3 664//3 659//3
f 662//4 657//4 660//4 663//4
usemtl top
f 663//5 660//5 659//5 664//5
f 661//6 658//6 657//6 662//6
g cube_83
usemtl right
f 665//1 666//1 667//1 668//1
f 669//2 670//2 671//2 672//2
usemtl left
f 666//3 669//3 672//3 667//3
f 670//4 665//4 668//4 671//4
usemtl top
f 671//5 668//5 667//5 672//5
f 669//6 666//6 665//6 670//6
g cube_84
usemtl right
f 673//1 674//1 675//1 676//1
f 677//2 678//2 679//2 680//2
usemtl left
f 674//3 677//3 680//3 675//3
f 678//4 673//4 676//4 679//4
usemtl top
f 679//5 676//5 675//5 680//5
f 677//6 674//6 673//6 678//6
g cube_85
usemtl right
f 681//1 682//1 683//1 684//1
f 685//2 686//2 687//2 688//2
usemtl left
f 682//3 685//3 688//3 683//3
f 686//4 681//4 684//4 687//4
usemtl top
f 687//5 684//5 683//5 688//5
f 685//6 682//6 681//6 686//6
g cube_86
usemtl right
f 689//1 690//1 691//1 692//1
f 693//2 694//2 695//2 696//2
usemtl left
f 690//3 693//3 696//3 691//3
f 694//4 689//4 692//4 695//4
usemtl top
f 695//5 692//5 691//5 696//5
f 693//6 690//6 689//6 694//6
g cube_87
usemtl right
f 697//1 698//1 699//1 700//1
f 701//2 702//2 703//2 704//2
usemtl left
f 698//3 701//3 704//3 699//3
f 702//4 697//4 700//4 703//4
usemtl top
f 703//5 700//5 699//5 704//5
f 701//6 698//6 697//6 702//6
g cube_88
usemtl right
f 705//1 706//1 707//1 708//1
f 709//2 710//2 711//2 712//2
usemtl left
f 706//3 709//3 712//3 707//3
f 710//4 705//4 708//4 711//4
usemtl top
f 711//5 708//5 707//5 712//5
f 709//6 706//6 705//6 710//6
g cube_89
usemtl right
f 713//1 714//1 715//1 716//1
f 717//2 718//2 719//2 720//2
usemtl left
f 714//3 717//3 720//3 715//3
f 718//4 713//4 716//4 719//4
usemtl top
f 719//5 716//5 715//5 720//5
f 717//6 714//6 713//6 718//6
g cube_90
usemtl right
f 721//1 722//1 723//1 724//1
f 725//2 726//2 727//2 728//2
usemtl left
f 722//3 725//3 728//3 723//3
f 726//4 721//4 724//4 727//4
usemtl top
f 727//5 724//5 723//5 728//5
f 725//6 722//6 721//6 726//6
g cube_91
usemtl right
f 729//1 730//1 731//1 732//1
f 733//2 734//2 735//2 736//2
usemtl left
f 730//3 733//3 736//3 731//3
f 734//4 729//4 732//4 735//4
usemtl top
f 735//5 732//5 731//5 736//5
f 733//6 730//6 729//6 734//6
g cube_92
usemtl right
f 737//1 738//1 739//1 740//1
f 741//2 742//2 743//2 744//2
usemtl left
f 738//3 741//3 744//3 739//3
f 742//4 737//4 740//4 743//4
usemtl top
f 743//5 740//5 739//5 744//5
f 741//6 738//6 737//6 742//6
g cube_93
usemtl right
f 745//1 746//1 747//1 748//1
f 749//2 750//2 751//2 752//2
usemtl left
f 746//3 749//3 752//3 747//3
f 750//4 745//4 748//4 751//4
usemtl top
f 751//5 748//5 747//5 752//5
f 749//6 746//6 745//6 750//6
g cube_94
usemtl right
f 753//1 754//1 755//1 756//1
f 757//2 758//2 759//2 760//2
usemtl left
f 754//3 757//3 760//3 755//3
f 758//4 753//4 756//4 759//4
usemtl top
f 759//5 756//5 755//5 760//5
f 757//6 754//6 753//6 758//6
g cube_95
usemtl right
f 761//1 762//1 763//1 764//1
f 765//2 766//2 767//2 768//2
usemtl left
f 762//3 765//3 768//3 763//3
f 766//4 761//4 764//4 767//4
usemtl top
f 767//5 764//5 763//5 768//5
f 765//6 762//6 761//6 766//6
g cube_96
usemtl right
f 769//1 770//1 771//1 772//1
f 773//2 774//2 775//2 776//2
usemtl left
f 770//3 773//3 776//3 771//3
f 774//4 769//4 772//4 775//4
usemtl top
f 775//5 772//5 771//5 776//5
f 773//6 770//6 769//6 774//6
g cube_97
usemtl right
f 777//1 778//1 779//1 780//1
f 781//2 782//2 783//2 784//2
usemtl left
f 778//3 781//3 784//3 779//3
f 782//4 777//4 780//4 783//4
usemtl top
f 783//5 780//5 779//5 784//5
f 781//6 778//6 777//6 782//6
g cube_98
usemtl right
f 785//1 786//1 787//1 788//1
f 789//2 790//2 791//2 792//2
usemtl left
f 786//3 789//3 792//3 787//3
f 790//4 785//4 788//4 791//4
usemtl top
f 791//5 788//5 787//5 792//5
f 789//6 786//6 785//6 790//6
g cube_99
usemtl right
f 793//1 794//1 795//1 796//1
f 797//2 798//2 799//2 800//2
usemtl left
f 794//3 797//3 800//3 795//3
f 798//4 793//4 796//4 799//4
usemtl top
f 799//5 796//5 795//5 800//5
f 797//6 794//6 793//6 798//6
g cube_100
usemtl right
f 801//1 802//1 803//1 804//1
f 805//2 806//2 807//2 808//2
usemtl left
f 802//3 805//3 808//3 803//3
f 806//4 801//4 804//4 807//4
usemtl top
f 807//5 804//5 803//5 808//5
f 805//6 802//6 801//6 806//6
g cube_101
usemtl right
f 809//1 810//1 811//1 812//1
f 813//2 814//2 815//2 816//2
usemtl left
f 810//3 813//3 816//3 811//3
f 814//4 809//4 812//4 815//4
usemtl top
f 815//5 812//5 811//5 816//5
f 813//6 810//6 809//6 814//6
g cube_102
usemtl right
f 817//1 818//1 819//1 820//1
f 821//2 822//2 823//2 824//2
usemtl left
f 818//3 821//3 824//3 819//3
f 822//4 817//4 820//4 823//4
usemtl top
f 823//5 820//5 819//5 824//5
f 821//6 818//6 817//6 822//6
g cube_103
usemtl right
f 825//1 826//1 827//1 828//1
f 829//2 830//2 831//2 832//2
usemtl left
f 826//3 829//3 832//3 827//3
f 830//4 825//4 828//4 831//4
usemtl top
f 831//5 828//5 827//5 832//5
f 829//6 826//6 825//6 830//6
g cube_104
usemtl right
f 833//1 834//1 835//1 836//1
f 837//2 838//2 839//2 840//2
usemtl left
f 834//3 837//3 840//3 835//3
f 838//4 833//4 836//4 839//4
usemtl top
f 839//5 836//5 835//5 840//5
f 837//6 834//6 833//6 838//6
g cube_105
usemtl right
f 841//1 842//1 843//1 844//1
f 845//2 846//2 847//2 848//2
usemtl left
f 842//3 845//3 848//3 843//3
f 846//4 841//4 844//4 847//4
usemtl top
f 847//5 844//5 843//5 848//5
f 845//6 842//6 841//6 846//6
g cube_106
usemtl right
f 849//1 850//1 851//1 852//1
f 853//2 854//2 855//2 856//2
usemtl left
f 850//3 853//3 856//3 851//3
f 854//4 849//4 852//4 855//4
usemtl top
f 855//5 852//5 851//5 856//5
f 853//6 850//6 849//6 854//6
g cube_107
usemtl right
f 857//1 858//1 859//1 860//1
f 861//2 862//2 863//2 864//2
usemtl left
f 858//3 861//3 864//3 859//3
f 862//4 857//4 860//4 863//4
usemtl top
f 863//5 860//5 859//5 864//5
f 861//6 858//6 857//6 862//6
g cube_108
usemtl right
f 865//1 866//1 867//1 868//1
f 869//2 870//2 871//2 872//2
usemtl left
f 866//3 869//3 872//3 867//3
f 870//4 865//4 868//4 871//4
usemtl top
f 871//5 868//5 867//5 872//5
f 869//6 866//6 865//6 870//6
g cube_109
usemtl right
f 873//1 874//1 875//1 876//1
f 877//2 878//2 879//2 880//2
usemtl left
f 874//3 877//3 880//3 875//3
f 878//4 873//4 876//4 879//4
usemtl top
f 879//5 876//5 875//5 880//5
f 877//6 874//6 873//6 878//6
g cube_110
usemtl right
f 881//1 882//1 883//1 884//1
f 885//2 886//2 887//2 888//2
usemtl left
f 882//3 885//3 888//3 883//3
f 886//4 881//4 884//4 887//4
usemtl top
f 887//5 884//5 883//5 888//5
f 885//6 882//6 881//6 886//6
g cube_111
usemtl right
f 889//1 890//1 891//1 892//1
f 893//2 894//2 895//2 896//2
usemtl left
f 890//3 893//3 896//3 891//3
f 894//4 889//4 892//4 895//4
usemtl top
f 895//5 892//5 891//5 896//5
f 893//6 890//6 889//6 894//6
g cube_112
usemtl right
f 897//1 898//1 899//1 900//1
f 901//2 902//2 903//2 904//2
usemtl left
f 898//3 901//3 904//3 899//3
f 902//4 897//4 900//4 903//4
usemtl top
f 903//5 900//5 899//5 904//5
f 901//6 898//6 897//6 902//6
g cube_113
usemtl right
f 905//1 906//1 907//1 908//1
f 909//2 910//2 911//2 912//2
usemtl left
f 906//3 909//3 912//3 907//3
f 910//4 905//4 908//4 911//4
usemtl top
f 911//5 908//5 907//5 912//5
f 909//6 906//6 905//6 910//6
g cube_114
usemtl right
f 913//1 914//1 915//1 916//1
f 917//2 918//2 919//2 920//2
usemtl left
f 914//3 917//3 920//3 915//3
f 918//4 913//4 916//4 919//4
usemtl top
f 919//5 916//5 915//5 920//5
f 917//6 914//6 913//6 918//6
g cube_115
usemtl right
f 921//1 922//1 923//1 924//1
f 925//2 926//2 927//2 928//2
usemtl left
f 922//3 925//3 928//3 923//3
f 926//4 921//4 924//4 927//4
usemtl top
f 927//5 924//5 923//5 928//5
f 925//6 922//6 921//6 926//6
g cube_116
usemtl right
f 929//1 930//1 931//1 932//1
f 933//2 934//2 935//2 936//2
usemtl left
f 930//3 933//3 936//3 931//3
f 934//4 929//4 932//4 935//4
usemtl top
f 935//5 932//5 931//5 936//5
f 933//6 930//6 929//6 934//6
g cube_117
usemtl right
f 937//1 938//1 939//1 940//1
f 941//2 942//2 943//2 944//2
usemtl left
f 938//3 941//3 944//3 939//3
f 942//4 937//4 940//4 943//4
usemtl top
f 943//5 940//5 939//5 944//5
f 941//6 938//6 937//6 942//6
g cube_118
usemtl right
f 945//1 946//1 947//1 948//1
f 949//2 950//2 951//2 952//2
usemtl left
f 946//3 949//3 952//3 947//3
f 950//4 945//4 948//4 951//4
usemtl top
f 951//5 948//5 947//5 952//5
f 949//6 946//6 945//6 950//6
g cube_119
usemtl right
f 953//1 954//1 955//1 956//1
f 957//2 958//2 959//2 960//2
usemtl left
f 954//3 957//3 960//3 955//3
f 958//4 953//4 956//4 959//4
usemtl top
f 959//5 956//5 955//5 960//5
f 957//6 954//6 953//6 958//6
g cube_120
usemtl right
f 961//1 962//1 963//1 964//1
f 965//2 966//2 967//2 968//2
usemtl left
f 962//3 965//3 968//3 963//3
f 966//4 961//4 964//4 967//4
usemtl top
f 967//5 964//5 963//5 968//5
f 965//6 962//6 961//6 966//6
g cube_121
usemtl right
f 969//1 970//1 971//1 972//1
f 973//2 974//2 975//2 976//2
usemtl left
f 970//3 973//3 976//3 971//3
f 974//4 969//4 972//4 975//4
usemtl top
f 975//5 972//5 971//5 976//5
f 973//6 970//6 969//6 974//6
g cube_122
usemtl right
f 977//1 978//1 979//1 980//1
f 981//2 982//2 983//2 984//2
usemtl left
f 978//3 981//3 984//3 979//3
f 982//4 977//4 980//4 983//4
usemtl top
f 983//5 980//5 979//5 984//5
f 981//6 978//6 977//6 982//6
g cube_123
usemtl right
f 985//1 986//1 987//1 988//1
f 989//2 990//2 991//2 992//2
usemtl left
f 986//3 989//3 992//3 987//3
f 990//4 985//4 988//4 991//4
usemtl top
f 991//5 988//5 987//5 992//5
f 989//6 986//6 985//6 990//6
g cube_124
usemtl right
f 993//1 994//1 995//1 996//1
f 997//2 998//2 999//2 1000//2
usemtl left
f 994//3 997//3 1000//3 995//3
f 998//4 993//4 996//4 999//4
usemtl top
f 999//5 996//5 995//5 1000//5
f 997//6 994//6 993//6 998//6
g cube_125
usemtl right
f 1001//1 1002//1 1003//1 1004//1
f 1005//2 1006//2 1007//2 1008//2
usemtl left
f 1002//3 1005//3 1008//3 1003//3
f 1006//4 1001//4 1004//4 1007//4
usemtl top
f 1007//5 1004//5 1003//5 1008//5
f 1005//6 1002//6 1001//6 1006//6
g cube_126
usemtl right
f 1009//1 1010//1 1011//1 1012//1
f 1013//2 1014//2 1015//2 1016//2
usemtl left
f 1010//3 1013//3 1016//3 1011//3
f 1014//4 1009//4 1012//4 1015//4
usemtl top
f 1015//5 1012//5 1011//5 1016//5
f 1013//6 1010//6 1009//6 1014//6
g cube_127
usemtl right
f 1017//1 1018//1 1019//1 1020//1
f 1021//2 1022//2 1023//2 1024//2
usemtl left
f 1018//3 1021//3 1024//3 1019//3
f 1022//4 1017//4 1020//4 1023//4
usemtl top
f 1023//5 1020//5 1019//5 1024//5
f 1021//6 1018//6 1017//6 1022//6
g cube_128
usemtl right
f 1025//1 1026//1 1027//1 1028//1
f 1029//2 1030//2 1031//2 1032//2
usemtl left
f 1026//3 1029//3 1032//3 1027//3
f 1030//4 1025//4 1028//4 1031//4
usemtl top
f 1031//5 1028//5 1027//5 1032//5
f 1029//6 1026//6 1025//6 1030//6
g cube_129
usemtl right
f 1033//1 1034//1 1035//1 1036//1
f 1037//2 1038//2 1039//2 1040//2
usemtl left
f 1034//3 1037//3 1040//3 1035//3
f 1038//4 1033//4 1036//4 1039//4
usemtl top
f 1039//5 1036//5 1035//5 1040//5
f 1037//6 1034//6 1033//6 1038//6
g cube_130
usemtl right
f 1041//1 1042//1 1043//1 1044//1
f 1045//2 1046//2 1047//2 1048//2
usemtl left
f 1042//3 1045//3 1048//3 1043//3
f 1046//4 1041//4 1044//4 1047//4
usemtl top
f 1047//5 1044//5 1043//5 1048//5
f 1045//6 1042//6 1041//6 1046//6
g cube_131
usemtl right
f 1049//1 1050//1 1051//1 1052//1
f 1053//2 1054//2 1055//2 1056//2
usemtl left
f 1050//3 1053//3 1056//3 1051//3
f 1054//4 1049//4 1052//4 1055//4
usemtl top
f 1055//5 1052//5 1051//5 1056//5
f 1053//6 1050//6 1049//6 1054//6
g cube_132
usemtl right
f 1057//1 1058//1 1059//1 1060//1
f 1061//2 1062//2 1063//2 1064//2
usemtl left
f 1058//3 1061//3 1064//3 1059//3
f 1062//4 1057//4 1060//4 1063//4
usemtl top
f 1063//5 1060//5 1059//5 1064//5
f 1061//6 1058//6 1057//6 1062//6
g cube_133
usemtl right
f 1065//1 1066//1 1067//1 1068//1
f 1069//2 1070//2 1071//2 1072//2
usemtl left
f 1066//3 1069//3 1072//3 1067//3
f 1070//4 1065//4 1068//4 1071//4
usemtl top
f 1071//5 1068//5 1067//5 1072//5
f 1069//6 1066//6 1065//6 1070//6
g cube_134
usemtl right
f 1073//1 1074//1 1075//1 1076//1
f 1077//2 1078//2 1079//2 1080//2
usemtl left
f 1074//3 1077//3 1080//3 1075//3
f 1078//4 1073//4 1076//4 1079//4
usemtl top
f 1079//5 1076//5 1075//5 1080//5
f 1077//6 1074//6 1073//6 1078//6
g cube_135
usemtl right
f 1081//1 1082//1 1083//1 1084//1
f 1085//2 1086//2 1087//2 1088//2
usemtl left
f 1082//3 1085//3 1088//3 1083//3
f 1086//4 1081//4 1084//4 1087//4
usemtl top
f 1087//5 1084//5 1083//5 1088//5
f 1085//6 1082//6 1081//6 1086//6
g cube_136
usemtl right
f 1089//1 1090//1 1091//1 1092//1
f 1093//2 1094//2 1095//2 1096//2
usemtl left
f 1090//3 1093//3 1096//3 1091//3
f 1094//4 1089//4 1092//4 1095//4
usemtl top
f 1095//5 1092//5 1091//5 1096//5
f 1093//6 1090//6 1089//6 1094//6
g cube_137
usemtl right
f 1097//1 1098//1 1099//1 1100//1
f 1101//2 1102//2 1103//2 1104//2
usemtl left
f 1098//3 1101//3 1104//3 1099//3
f 1102//4 1097//4 1100//4 1103//4
usemtl top
f 1103//5 1100//5 1099//5 1104//5
f 1101//6 1098//6 1097//6 1102//6
g cube_138
usemtl right
f 1105//1 1106//1 1107//1 1108//1
f 1109//2 1110//2 1111//2 1112//2
usemtl left
f 1106//3 1109//3 1112//3 1107//3
f 1110//4 1105//4 1108//4 1111//4
usemtl top
f 1111//5 1108//5 1107//5 1112//5
f 1109//6 1106//6 1105//6 1110//6
g cube_139
usemtl right
f 1113//1 1114//1 1115//1 1116//1
f 1117//2 1118//2 1119//2 1120//2
usemtl left
f 1114//3 1117//3 1120//3 1115//3
f 1118//4 1113//4 1116//4 1119//4
usemtl top
f 1119//5 1116//5 1115//5 1120//5
f 1117//6 1114//6 1113//6 1118//6
g cube_140
usemtl right
f 1121//1 1122//1 1123//1 1124//1
f 1125//2 1126//2 1127//2 1128//2
usemtl left
f 1122//3 1125//3 1128//3 1123//3
f 1126//4 1121//4 1124//4 1127//4
usemtl top
f 1127//5 1124//5 1123//5 1128//5
f 1125//6 1122//6 1121//6 1126//6
